<?xml version="1.0" standalone="no"?>
<!DOCTYPE svg PUBLIC "-//W3C//DTD SVG 20010904//EN"
 "http://www.w3.org/TR/2001/REC-SVG-20010904/DTD/svg10.dtd">
<svg version="1.0" xmlns="http://www.w3.org/2000/svg"
 width="1554.000000pt" height="745.000000pt" viewBox="0 0 1554.000000 745.000000"
 preserveAspectRatio="xMidYMid meet">

<g transform="translate(0.000000,745.000000) scale(0.100000,-0.100000)"
fill="#000000" stroke="none">
<path d="M0 3725 l0 -3725 7765 0 7765 0 -6 25 c-4 15 -2 25 5 25 8 0 11 464
11 1705 0 1357 -3 1705 -12 1705 -9 0 -8 4 2 10 13 9 13 11 0 20 -13 9 -13 10
0 10 13 0 13 1 0 10 -10 7 -11 10 -2 10 10 0 12 276 12 1365 l0 1365 -23 1
c-21 1 -21 1 3 8 l25 8 -25 5 c-23 5 -23 5 -2 7 l22 1 0 579 0 578 -37 7 c-21
3 -3518 6 -7770 6 l-7733 0 0 -3725z m14511 3132 c-10 -9 -11 -8 -5 6 3 10 9
15 12 12 3 -3 0 -11 -7 -18z m-18 -11 c4 -10 -11 -13 -71 -15 -51 -1 -72 2
-63 8 8 5 39 9 68 7 29 -1 53 2 53 6 0 13 7 9 13 -6z m-9403 -6 c0 -5 23 -10
50 -10 28 0 50 -4 50 -10 0 -5 11 -10 25 -10 16 0 25 -6 25 -15 0 -8 7 -15 15
-15 8 0 15 -4 15 -10 0 -5 6 -10 13 -10 7 0 19 -9 27 -20 8 -11 18 -20 23 -20
16 0 37 -28 37 -49 0 -12 5 -21 10 -21 6 0 10 -7 10 -15 0 -8 5 -15 10 -15 6
0 10 -12 10 -26 0 -14 4 -23 10 -19 6 4 10 -7 10 -24 0 -21 5 -31 15 -31 9 0
15 -9 15 -23 0 -33 10 -40 29 -19 9 9 30 23 46 31 17 7 38 17 47 22 10 5 25 9
33 9 8 0 15 7 15 15 0 12 13 15 55 15 30 0 55 5 55 10 0 6 13 10 29 10 17 0
33 -4 36 -10 3 -5 24 -10 46 -10 22 0 39 -5 39 -11 0 -6 7 -8 16 -5 8 3 12 2
9 -4 -3 -6 4 -10 15 -10 12 0 35 -14 50 -30 16 -17 31 -31 34 -30 27 2 36 -3
36 -20 0 -11 5 -20 10 -20 6 0 10 -7 10 -15 0 -8 4 -15 8 -15 16 0 52 -91 52
-131 0 -26 5 -42 15 -45 9 -4 15 -19 15 -35 0 -19 -5 -29 -15 -29 -11 0 -15
-13 -15 -54 0 -30 -4 -58 -10 -61 -5 -3 -10 -17 -10 -31 0 -13 -4 -24 -10 -24
-5 0 -10 -10 -10 -23 0 -12 -9 -29 -20 -37 -11 -8 -20 -20 -20 -26 0 -6 -11
-20 -25 -30 -14 -10 -25 -22 -25 -27 0 -14 -49 -57 -65 -57 -8 0 -15 -4 -15
-10 0 -5 -7 -10 -15 -10 -8 0 -15 -4 -15 -10 0 -5 -6 -10 -14 -10 -8 0 -18 -5
-22 -12 -5 -7 -3 -8 6 -3 9 5 11 4 6 -3 -4 -7 -14 -12 -22 -12 -8 0 -14 -4
-14 -10 0 -5 -11 -10 -25 -10 -14 0 -25 -4 -25 -10 0 -5 -9 -10 -20 -10 -11 0
-20 -4 -20 -10 0 -5 -9 -10 -20 -10 -11 0 -20 -4 -20 -10 0 -5 -16 -10 -35
-10 -24 0 -35 -5 -35 -15 0 -9 -10 -15 -26 -15 -14 0 -23 -4 -19 -10 4 -6 -12
-10 -39 -10 -25 0 -46 -4 -46 -10 0 -5 -20 -10 -45 -10 -25 0 -45 -4 -45 -10
0 -5 -25 -10 -55 -10 -30 0 -55 -4 -55 -10 0 -6 -34 -10 -81 -10 -54 0 -78 -3
-74 -11 4 -6 -2 -5 -14 3 -12 7 -21 16 -21 20 0 5 -5 8 -10 8 -11 0 -80 65
-80 75 0 3 -12 18 -27 34 -38 38 -63 70 -63 79 0 4 -9 14 -20 22 -11 8 -20 22
-20 32 0 10 -5 18 -11 18 -16 0 -39 26 -39 45 0 9 -9 25 -20 37 -11 12 -20 28
-20 35 0 7 -4 13 -10 13 -5 0 -10 11 -10 25 0 14 -4 25 -10 25 -5 0 -10 9 -10
20 0 11 -7 20 -15 20 -8 0 -15 9 -15 20 0 11 -4 20 -10 20 -5 0 -10 16 -10 35
0 19 -4 35 -10 35 -5 0 -10 16 -10 35 0 19 -4 35 -10 35 -6 0 -10 29 -10 66 0
45 -3 63 -11 58 -8 -5 -9 6 -5 37 4 24 9 70 12 102 3 31 10 57 15 57 5 0 9 11
9 25 0 14 5 25 10 25 6 0 10 9 10 20 0 11 5 20 10 20 6 0 10 11 10 25 0 14 5
25 10 25 6 0 32 23 59 50 28 29 58 50 70 50 12 0 21 6 21 15 0 8 9 15 20 15
11 0 20 5 20 10 0 6 20 10 45 10 25 0 45 5 45 10 0 6 16 10 35 10 19 0 35 -4
35 -10z m9620 -4 c8 -2 -11 -4 -43 -5 -32 0 -56 3 -53 7 4 7 57 6 96 -2z
m-370 -11 c0 -8 -2 -15 -4 -15 -2 0 -6 7 -10 15 -3 8 -1 15 4 15 6 0 10 -7 10
-15z m197 9 c-3 -3 -12 -4 -19 -1 -8 3 -5 6 6 6 11 1 17 -2 13 -5z m56 -1 c-7
-2 -21 -2 -30 0 -10 3 -4 5 12 5 17 0 24 -2 18 -5z m237 -8 l35 -13 -60 0
c-37 1 -48 3 -30 6 l30 5 -30 7 c-27 7 -27 8 -5 8 14 0 41 -6 60 -13z m-572
-12 c-10 -2 -28 -2 -40 0 -13 2 -5 4 17 4 22 1 32 -1 23 -4z m-106 -17 c9 0
14 -4 12 -8 -9 -15 -72 -9 -78 7 -4 12 0 14 22 8 15 -4 35 -7 44 -7z m853 -22
c22 -5 43 -7 46 -6 4 0 15 -8 24 -18 10 -11 24 -20 32 -20 8 0 12 -4 9 -9 -3
-5 0 -9 7 -8 34 1 46 -5 55 -30 l10 -28 2 25 c2 23 3 23 9 -5 6 -26 10 -30 39
-29 17 1 32 -1 32 -5 0 -12 -23 -31 -37 -31 -16 0 -63 44 -63 60 0 5 -9 10
-20 10 -11 0 -20 5 -20 10 0 6 -12 10 -26 10 -14 0 -23 4 -19 10 4 6 -6 10
-22 11 l-28 1 25 8 c24 8 23 8 -7 9 -18 1 -33 6 -33 11 0 6 -13 10 -29 10 -16
0 -36 6 -43 13 -7 7 -37 12 -70 12 -31 -1 -55 2 -52 6 2 4 19 6 38 4 18 -1 39
1 46 5 8 5 22 2 34 -5 12 -7 39 -17 61 -21z m-795 6 c0 -5 -2 -10 -4 -10 -3 0
-8 5 -11 10 -3 6 -1 10 4 10 6 0 11 -4 11 -10z m-180 -12 c0 13 28 16 54 6 9
-3 16 -15 16 -26 0 -10 -4 -16 -10 -13 -6 4 -10 -8 -10 -29 0 -29 -3 -34 -17
-30 -14 5 -15 4 -4 -4 8 -6 20 -8 28 -5 7 3 13 0 13 -7 0 -8 -9 -10 -25 -6
-24 6 -25 5 -25 -46 1 -49 2 -51 15 -34 8 11 16 18 18 15 33 -43 44 -54 56
-54 8 0 15 -10 16 -22 1 -12 -3 -19 -8 -16 -5 3 -13 -1 -18 -8 -14 -22 -11
-29 11 -29 11 0 20 5 20 10 0 6 12 10 26 10 23 0 25 3 20 28 -5 19 -4 23 3 13
13 -20 50 -24 67 -6 8 8 15 17 14 20 -1 26 0 29 12 17 18 -18 78 -16 78 3 0
11 11 15 36 15 21 0 33 4 29 10 -4 6 5 10 20 10 18 0 24 4 19 13 -5 8 -2 8 9
-2 14 -11 17 -11 18 0 0 10 2 11 6 2 6 -15 33 -17 33 -3 0 6 25 10 55 10 30 0
55 5 55 10 0 6 71 10 193 10 105 0 187 -4 180 -8 -6 -4 -72 -7 -146 -7 -74 0
-133 -3 -130 -7 2 -5 -2 -8 -9 -9 -26 -1 48 -28 80 -29 20 0 31 -4 27 -10 -3
-5 2 -10 12 -10 11 0 24 -5 31 -12 7 -7 12 -9 12 -5 0 4 14 0 32 -9 46 -24 81
-27 114 -9 34 18 64 20 64 4 0 -6 -6 -9 -14 -6 -16 6 -66 -13 -66 -25 0 -5 12
-8 28 -9 24 0 24 -1 7 -8 -19 -8 -18 -9 5 -12 14 -3 24 -10 22 -18 -2 -8 3
-11 13 -8 8 4 15 3 15 -1 0 -13 61 -42 73 -35 7 4 6 -1 -2 -10 -13 -16 -12
-17 13 -7 15 5 25 6 21 1 -3 -6 6 -21 19 -34 16 -16 27 -21 30 -14 2 7 5 5 5
-4 1 -9 9 -23 18 -30 10 -8 14 -9 10 -2 -4 6 -2 15 4 19 7 4 9 3 5 -4 -3 -6
-2 -13 3 -17 6 -3 8 -11 5 -19 -3 -7 2 -13 10 -13 8 0 13 4 10 9 -3 4 1 5 9 2
8 -3 21 2 30 10 22 22 30 20 17 -4 -6 -11 -16 -19 -22 -17 -6 1 -13 -4 -16
-12 -3 -8 0 -11 7 -7 6 4 11 0 11 -9 0 -10 5 -13 12 -9 8 5 9 2 5 -9 -3 -10
-2 -17 3 -17 6 0 10 8 10 17 0 19 13 9 16 -12 1 -8 -2 -15 -8 -15 -7 0 -6 -5
1 -14 19 -23 -29 -29 -54 -7 -11 11 -29 21 -40 23 -11 2 -19 10 -17 17 1 7 -2
10 -8 6 -5 -3 -10 -1 -10 6 0 8 -5 7 -17 -2 -9 -8 -14 -9 -10 -2 4 7 -1 14
-13 18 -11 4 -18 11 -15 16 9 13 -9 11 -24 -3 -11 -11 -12 -10 -6 0 5 9 1 12
-11 10 -11 -2 -18 2 -17 10 2 6 -4 12 -12 12 -8 0 -15 -4 -15 -10 0 -5 -4 -10
-10 -10 -5 0 -7 7 -4 15 8 19 -6 19 -32 1 -17 -13 -21 -13 -21 -1 0 8 4 12 8
9 4 -2 10 0 13 4 3 5 -17 8 -44 7 -39 -1 -50 2 -51 14 -1 13 -2 12 -6 -1 -5
-22 -23 -24 -23 -3 0 8 -7 15 -15 15 -18 0 -20 -16 -2 -23 9 -4 9 -6 -1 -6 -8
-1 -17 9 -20 22 -6 22 -6 22 -13 -3 l-7 -25 -1 26 c-1 22 -7 28 -30 31 -17 2
-28 1 -25 -4 3 -4 0 -8 -5 -8 -6 0 -11 4 -11 10 0 10 -102 6 -121 -5 -8 -5
-10 -4 -5 3 5 8 -1 12 -14 12 -14 0 -19 -4 -14 -12 5 -10 4 -10 -6 -1 -11 10
-17 10 -29 0 -12 -10 -13 -9 -7 2 6 8 -1 7 -18 -4 -15 -10 -29 -15 -33 -11 -4
3 -17 -1 -31 -10 -13 -9 -21 -11 -18 -5 5 7 -8 11 -38 11 -25 0 -46 -4 -46
-10 0 -5 -23 -10 -51 -10 -42 0 -49 -2 -40 -14 9 -11 6 -12 -14 -8 -14 2 -25
0 -25 -5 0 -10 13 -13 48 -13 109 0 151 -1 174 -4 20 -2 25 1 21 13 -4 13 -2
13 10 -2 12 -14 16 -15 20 -4 4 11 16 13 54 6 26 -5 87 -11 136 -15 48 -3 87
-10 87 -16 0 -5 9 -6 20 -3 15 5 20 2 20 -12 0 -14 2 -15 9 -4 7 11 10 11 17
0 10 -16 46 -19 56 -4 4 6 8 2 8 -8 0 -10 4 -15 10 -12 5 3 24 -2 42 -12 18
-9 42 -18 53 -20 10 -2 22 -7 25 -11 3 -4 19 -15 35 -24 17 -9 31 -25 33 -36
2 -15 9 -18 24 -14 14 3 19 1 14 -6 -4 -7 -2 -12 4 -12 7 0 9 -7 5 -17 -5 -15
-4 -16 6 -5 19 18 31 14 20 -7 -8 -15 -7 -20 5 -25 9 -3 14 -12 11 -19 -2 -6
3 -17 11 -23 9 -7 12 -16 7 -24 -6 -10 -11 -9 -21 5 -16 22 -71 30 -77 12 -2
-6 -2 1 1 18 4 26 3 28 -12 16 -14 -11 -16 -11 -16 3 0 9 -6 16 -12 16 -9 0
-8 4 2 11 11 7 5 8 -22 3 -32 -5 -38 -3 -38 11 0 14 -3 15 -14 6 -10 -8 -23
-7 -51 5 -25 10 -59 14 -100 12 -45 -2 -61 0 -58 9 10 26 -99 18 -209 -17 -16
-4 -28 -5 -28 -2 0 4 -20 8 -45 10 -25 1 -45 -2 -45 -8 0 -5 -21 -10 -47 -10
-27 0 -43 -4 -36 -8 8 -5 -9 -13 -44 -20 -30 -6 -60 -9 -64 -6 -5 3 -9 0 -9
-7 0 -8 -3 -9 -14 0 -11 9 -12 7 -9 -12 4 -20 1 -23 -29 -22 -18 0 -41 -6 -50
-14 -20 -17 -40 -22 -88 -23 -26 0 -30 -2 -16 -7 11 -4 15 -10 10 -13 -11 -6
-63 -21 -84 -23 -28 -3 -70 -24 -70 -35 0 -6 -10 -11 -22 -10 -41 4 -55 -1
-33 -10 l20 -9 -20 -1 c-11 -1 -30 -3 -42 -6 -13 -2 -23 1 -23 7 0 5 -5 7 -10
4 -6 -4 -8 -11 -5 -16 4 -5 -10 -9 -29 -9 -20 0 -36 -5 -36 -11 0 -5 -4 -8 -9
-4 -5 3 -12 1 -16 -5 -3 -5 -13 -10 -21 -10 -8 0 -12 4 -9 10 3 6 -1 7 -9 4
-9 -3 -16 -10 -16 -14 0 -5 -11 -7 -25 -5 -14 1 -25 -2 -25 -6 0 -5 -7 -9 -16
-9 -8 0 -12 -5 -9 -10 4 -6 3 -10 -2 -9 -22 4 -43 -2 -38 -11 3 -5 0 -10 -9
-10 -8 0 -17 6 -19 13 -4 8 -8 8 -14 2 -4 -5 -15 -10 -23 -10 -8 0 -14 -6 -12
-13 2 -10 -2 -10 -17 -2 -20 10 -90 8 -110 -4 -6 -4 -11 1 -12 11 -1 16 -2 16
-6 1 -2 -10 -14 -17 -26 -17 -12 0 -68 0 -125 -1 -69 0 -111 4 -130 13 -15 8
-33 12 -39 10 -7 -3 -13 0 -13 7 0 6 -8 10 -17 8 -10 -1 -33 5 -52 15 -19 9
-40 17 -48 17 -7 0 -16 7 -19 15 -4 8 -15 15 -26 15 -10 0 -17 4 -14 9 5 8
-16 23 -36 25 -3 1 -10 4 -14 8 -4 4 -13 0 -21 -10 -10 -14 -12 -14 -8 -1 5
14 -14 16 -167 18 -114 2 -178 6 -187 14 -12 10 -13 9 -7 -3 4 -9 1 -8 -7 3
-10 12 -29 17 -71 17 -36 0 -55 4 -51 10 4 6 -12 10 -39 10 -25 0 -46 5 -46
10 0 6 -16 10 -36 10 -22 0 -33 4 -29 10 4 7 -2 9 -19 4 -21 -5 -26 -2 -27 12
0 11 -3 14 -6 7 -3 -9 -11 -7 -26 7 -11 11 -28 20 -38 20 -9 0 -19 7 -23 15
-3 8 -12 15 -21 15 -8 0 -15 5 -15 10 0 6 -5 10 -11 10 -6 0 -17 7 -26 15 -8
9 -18 13 -21 10 -4 -3 0 -10 8 -15 11 -7 11 -10 2 -10 -7 0 -16 8 -19 18 -7
19 -44 48 -55 44 -5 -1 -8 5 -8 13 0 8 -4 15 -10 15 -5 0 -10 7 -10 15 0 9 -6
12 -17 8 -11 -4 -14 -3 -9 5 5 8 0 12 -12 12 -15 0 -19 5 -15 20 4 14 1 20 -8
18 -8 -2 -13 3 -11 11 1 7 -5 20 -15 30 -10 9 -24 28 -32 44 -8 15 -20 27 -28
27 -7 0 -13 10 -13 21 0 12 -10 30 -22 40 -11 11 -16 19 -9 19 8 0 7 5 -3 16
-9 8 -14 20 -11 25 4 5 1 9 -4 9 -6 0 -11 11 -11 25 0 14 -4 25 -10 25 -5 0
-10 16 -10 35 0 22 -4 34 -12 33 -15 -4 -18 24 -3 34 17 12 23 9 31 -14 8 -26
28 -48 44 -48 6 0 8 -4 5 -10 -3 -5 1 -10 9 -10 9 0 16 -5 16 -11 0 -5 4 -8 9
-5 5 3 12 -2 15 -11 6 -15 8 -15 16 -3 7 11 11 8 19 -13 7 -18 15 -25 23 -21
7 5 9 2 5 -8 -4 -12 1 -15 21 -15 14 0 28 -6 30 -12 2 -6 15 -11 28 -11 13 0
24 -4 24 -10 0 -5 16 -10 35 -10 19 0 35 -4 35 -10 0 -5 18 -10 39 -10 22 0
41 -5 43 -11 2 -6 41 -13 91 -16 48 -3 87 -9 87 -14 0 -13 351 -7 364 6 6 6
17 10 24 7 27 -9 162 10 177 25 8 8 15 11 15 7 0 -3 8 0 17 7 10 8 14 9 10 2
-9 -15 35 -14 45 2 5 6 8 6 8 -2 0 -7 5 -13 11 -13 5 0 7 5 4 10 -6 10 21 14
60 10 17 -2 18 0 5 17 -14 17 -14 17 6 1 11 -10 28 -18 37 -18 11 0 14 -7 11
-25 -2 -14 0 -25 5 -25 6 0 8 9 6 21 -3 17 -2 19 10 9 8 -7 14 -15 13 -18 -2
-17 3 -23 12 -17 8 5 7 11 -1 21 -6 8 -10 14 -8 15 42 8 52 8 40 0 -8 -5 -15
-19 -16 -30 -1 -18 4 -21 42 -21 24 0 43 -5 43 -10 0 -7 47 -10 128 -9 115 1
130 3 143 20 7 10 20 19 27 19 8 0 12 6 8 15 -3 8 -1 15 5 15 15 0 39 26 32
34 -4 3 1 6 9 6 11 0 15 8 13 25 -1 14 2 28 6 31 5 3 9 -4 9 -16 0 -12 9 -24
23 -30 20 -8 21 -9 2 -10 l-20 -1 20 -9 c12 -5 26 -3 35 5 8 6 22 16 30 20 12
6 13 5 3 -6 -7 -7 -13 -16 -13 -21 0 -4 6 -6 13 -4 6 1 9 1 5 -1 -14 -8 -9
-23 7 -23 10 0 15 10 15 30 0 17 4 30 8 30 5 0 9 7 9 15 0 8 -4 12 -9 9 -4 -3
-8 -1 -8 5 0 6 -8 8 -17 4 -14 -5 -15 -3 -6 7 6 7 25 13 42 14 22 0 31 6 31
18 0 11 -7 16 -20 15 -11 -1 -20 -5 -20 -10 0 -5 -29 -7 -64 -5 -49 3 -63 1
-59 -9 6 -14 -10 -17 -70 -13 -32 1 -38 -1 -35 -17 3 -15 -4 -18 -44 -18 -25
0 -50 -3 -54 -7 -11 -12 -102 -10 -109 2 -7 11 -7 11 53 14 23 1 42 -2 42 -8
0 -5 3 -7 6 -4 3 4 1 15 -5 26 -10 19 -8 20 20 15 17 -2 37 1 47 9 11 9 14 10
8 1 -4 -8 -2 -13 8 -13 8 0 18 5 21 10 3 6 26 10 50 10 24 0 47 5 50 10 3 6
15 10 25 10 10 0 26 7 34 16 15 14 16 14 16 0 0 -19 55 -23 65 -5 4 6 13 8 21
5 8 -3 14 -1 14 3 0 15 -33 22 -41 9 -5 -8 -8 -5 -6 9 0 12 4 20 8 17 4 -2 11
0 14 6 4 6 15 8 26 5 14 -5 17 -3 13 9 -4 11 0 16 11 16 12 0 16 6 12 19 -3
11 2 30 11 42 8 12 10 19 4 15 -7 -4 -12 -2 -12 3 0 6 4 11 9 11 6 0 9 9 8 20
-1 20 -17 29 -17 10 0 -5 -14 -10 -32 -10 -17 0 -28 3 -24 7 7 8 18 10 91 19
28 3 55 10 61 15 6 5 14 6 17 2 4 -3 13 -1 20 6 8 6 25 11 38 11 49 0 69 5 69
15 0 5 5 3 10 -5 6 -10 10 -11 10 -2z m197 -30 c-3 -7 -5 -2 -5 12 0 14 2 19
5 13 2 -7 2 -19 0 -25z m213 2 c0 -5 -4 -10 -10 -10 -5 0 -10 5 -10 10 0 6 5
10 10 10 6 0 10 -4 10 -10z m510 -9 c0 -5 -9 -7 -20 -4 -11 3 -20 7 -20 9 0 2
9 4 20 4 11 0 20 -4 20 -9z m-2263 -21 c3 -10 2 -11 -4 -4 -4 6 -15 14 -23 17
-11 5 -9 6 4 4 11 -1 21 -9 23 -17z m-80 -12 c-3 -8 -6 -5 -6 6 -1 11 2 17 5
13 3 -3 4 -12 1 -19z m23 -3 c0 -14 -4 -25 -9 -25 -4 0 -6 11 -3 25 2 14 6 25
8 25 2 0 4 -11 4 -25z m1720 15 c0 -5 -7 -10 -15 -10 -8 0 -15 5 -15 10 0 6 7
10 15 10 8 0 15 -4 15 -10z m-656 -15 c3 -8 3 -15 0 -15 -3 0 -12 7 -20 15
-13 13 -13 15 -1 15 8 0 17 -7 21 -15z m416 5 c0 -5 -5 -10 -11 -10 -5 0 -7 5
-4 10 3 6 8 10 11 10 2 0 4 -4 4 -10z m-10282 -69 c39 -38 76 -85 83 -105 7
-20 19 -36 26 -36 12 0 18 -19 14 -49 -2 -7 2 -10 8 -6 7 4 11 -7 11 -29 0
-19 5 -38 10 -41 6 -3 10 -52 10 -111 0 -63 -4 -104 -10 -104 -5 0 -10 -24
-10 -54 0 -30 -4 -58 -10 -61 -5 -3 -10 -37 -10 -76 0 -55 -3 -69 -15 -69 -12
0 -15 -14 -15 -65 0 -36 -4 -65 -9 -65 -5 0 -12 -34 -15 -75 -3 -41 -9 -109
-12 -150 -3 -41 -10 -75 -15 -75 -5 0 -9 -31 -9 -70 0 -38 -4 -70 -8 -70 -5 0
-10 -33 -11 -72 -1 -47 -7 -78 -17 -89 -9 -11 -14 -40 -14 -92 0 -45 -4 -77
-10 -77 -6 0 -10 -33 -10 -79 0 -44 -4 -83 -10 -86 -5 -3 -10 -44 -10 -90 0
-46 -4 -87 -10 -90 -5 -3 -10 -44 -10 -90 0 -46 -4 -87 -10 -90 -6 -3 -10 -48
-10 -101 0 -56 -4 -94 -10 -94 -6 0 -10 -45 -10 -116 0 -72 -4 -113 -10 -109
-17 11 -20 -22 -36 -372 l-5 -123 25 0 c14 0 26 4 26 9 0 5 9 13 20 16 11 4
32 17 45 31 13 13 33 24 45 24 11 0 20 5 20 10 0 11 85 100 95 100 9 0 35 27
35 37 0 5 9 15 20 23 11 8 20 20 20 28 0 16 24 42 39 42 6 0 11 7 11 15 0 8 5
15 10 15 6 0 10 6 10 13 0 7 9 23 20 35 11 12 20 29 20 39 0 10 9 25 20 33 11
8 20 22 20 32 0 10 7 18 15 18 9 0 15 9 15 25 0 14 5 25 10 25 6 0 10 9 10 20
0 11 5 20 10 20 6 0 10 9 10 21 0 11 5 17 10 14 6 -4 10 7 10 24 0 17 5 31 10
31 6 0 10 9 10 20 0 11 7 20 15 20 8 0 15 9 15 20 0 11 5 20 10 20 6 0 10 16
10 35 0 19 5 35 10 35 6 0 10 9 10 20 0 11 4 20 8 20 4 0 9 15 10 33 2 17 7
34 12 35 6 2 10 15 10 29 0 14 7 31 15 37 8 6 15 28 17 49 1 20 6 37 10 37 4
0 8 16 8 35 0 19 5 35 10 35 6 0 10 20 10 45 0 25 5 45 10 45 6 0 10 15 10 34
0 19 5 38 10 41 6 3 10 31 10 61 0 30 5 54 10 54 6 0 10 25 10 55 0 42 3 55
15 55 12 0 15 15 15 75 0 43 4 75 10 75 6 0 10 25 10 55 0 30 5 55 10 55 6 0
10 7 10 15 0 8 5 15 10 15 6 0 10 -7 10 -15 0 -11 12 -15 45 -15 25 0 45 -4
45 -10 0 -5 16 -10 35 -10 20 0 35 -5 35 -12 0 -6 3 -8 6 -5 13 13 94 -41 94
-62 0 -6 7 -11 15 -11 8 0 15 -5 15 -11 0 -5 5 -7 10 -4 6 3 10 0 10 -7 0 -8
9 -20 20 -28 11 -8 20 -22 20 -32 0 -10 5 -18 10 -18 6 0 10 -15 10 -34 0 -18
7 -39 15 -46 10 -8 15 -30 15 -62 0 -31 -6 -55 -15 -64 -9 -9 -15 -34 -15 -60
0 -24 -4 -44 -10 -44 -5 0 -10 -20 -10 -45 0 -25 -4 -45 -10 -45 -5 0 -10 -20
-10 -45 0 -25 -4 -45 -10 -45 -5 0 -10 -18 -10 -40 0 -22 -4 -40 -10 -40 -5 0
-10 -20 -10 -45 0 -33 -4 -45 -15 -45 -10 0 -15 -11 -15 -35 0 -19 -4 -35 -10
-35 -5 0 -10 -22 -10 -49 0 -28 -4 -53 -10 -56 -5 -3 -10 -19 -10 -36 0 -16
-4 -29 -10 -29 -5 0 -10 -26 -10 -57 0 -37 -3 -53 -9 -44 -6 9 -11 -2 -14 -35
-11 -94 -19 -124 -33 -124 -10 0 -14 -13 -14 -44 0 -25 -4 -48 -10 -51 -5 -3
-10 -28 -10 -56 0 -27 -4 -49 -10 -49 -15 0 -12 -112 4 -132 14 -19 56 -25 56
-8 0 6 7 10 16 10 18 0 134 116 134 134 0 6 9 18 20 26 11 8 20 21 20 30 1 19
24 50 39 50 6 0 11 6 11 13 0 7 9 23 20 35 11 12 20 26 20 32 0 5 5 10 10 10
6 0 10 7 10 16 0 18 23 44 39 44 6 0 11 10 11 23 0 12 9 29 20 37 11 8 20 20
20 28 0 7 9 22 20 34 11 12 20 30 20 40 0 10 7 18 15 18 8 0 15 6 15 13 0 7 9
23 20 35 11 12 20 30 20 42 0 11 5 20 10 20 6 0 10 6 10 13 0 7 9 23 20 35 11
12 20 30 20 42 0 11 7 20 15 20 8 0 15 9 15 20 0 11 5 20 10 20 6 0 10 14 10
30 0 17 5 30 10 30 6 0 10 11 10 25 0 14 5 25 10 25 6 0 10 14 10 30 0 17 5
30 10 30 6 0 10 11 10 25 0 16 6 25 15 25 8 0 15 9 15 20 0 11 5 20 10 20 6 0
10 11 10 25 0 14 5 25 10 25 6 0 10 9 10 20 0 11 4 20 9 20 5 0 14 14 21 30 7
17 19 30 26 30 8 0 14 10 14 25 0 14 4 25 9 25 5 0 14 14 21 30 7 17 16 30 21
30 5 0 9 6 9 14 0 8 4 16 9 18 5 2 11 10 13 18 3 16 23 40 33 40 8 0 35 26 35
34 0 9 64 76 73 76 9 0 57 46 57 55 0 13 50 55 66 55 9 0 24 9 34 20 10 11 29
21 44 22 14 1 26 8 26 15 0 10 22 13 80 13 69 0 80 -2 80 -17 0 -15 2 -16 10
-3 6 10 10 11 10 3 0 -7 9 -13 20 -13 11 0 20 -4 20 -10 0 -5 11 -10 25 -10
14 0 25 -4 25 -10 0 -5 7 -10 16 -10 9 0 28 -13 44 -30 15 -16 30 -26 34 -23
3 3 6 1 6 -5 0 -7 6 -12 13 -12 7 0 19 -9 27 -20 15 -21 50 -28 50 -10 0 6 7
10 15 10 9 0 15 9 15 21 0 12 8 29 18 38 10 9 24 36 32 61 7 25 17 49 22 55 4
5 8 17 8 27 0 10 8 18 18 19 35 2 67 -3 70 -12 2 -5 12 -9 23 -9 10 0 19 -4
19 -10 0 -5 7 -10 15 -10 8 0 15 -5 15 -10 0 -6 3 -9 8 -9 18 3 32 -2 32 -11
0 -14 46 -60 60 -60 5 0 10 -9 10 -20 0 -11 5 -20 10 -20 6 0 10 -11 10 -25 0
-14 6 -25 13 -25 8 0 7 -4 -3 -10 -10 -6 -11 -10 -2 -10 9 0 12 -24 12 -85 0
-50 -4 -85 -10 -85 -5 0 -10 -15 -10 -34 0 -19 -4 -38 -10 -41 -5 -3 -10 -24
-10 -46 0 -28 -4 -39 -15 -39 -10 0 -15 -10 -15 -30 0 -16 -4 -30 -8 -30 -4 0
-9 -17 -10 -37 -2 -21 -7 -42 -12 -47 -6 -6 -10 -25 -10 -43 0 -18 -4 -33 -10
-33 -5 0 -10 -18 -10 -40 0 -22 -4 -40 -10 -40 -5 0 -10 -21 -10 -47 0 -30 -3
-43 -9 -35 -11 18 -21 -7 -21 -53 0 -19 -4 -37 -10 -40 -5 -3 -10 -26 -10 -51
0 -24 -4 -44 -10 -44 -5 0 -10 -18 -10 -40 0 -22 -4 -40 -10 -40 -6 0 -10 -26
-10 -58 0 -32 -4 -62 -9 -67 -10 -11 -20 -76 -27 -188 -4 -55 -10 -80 -20 -84
-15 -5 -20 -67 -8 -98 5 -13 8 -14 15 -3 6 9 9 4 9 -15 0 -54 48 -74 88 -37
12 11 24 20 27 20 10 0 55 49 55 60 0 5 5 10 10 10 6 0 10 7 10 16 0 8 5 12
10 9 6 -3 10 3 10 14 0 12 5 21 11 21 6 0 17 6 25 14 8 8 14 19 14 25 0 6 5
11 10 11 6 0 10 8 10 18 0 10 9 24 20 32 11 8 20 25 20 37 0 13 6 23 13 23 8
0 20 12 28 28 8 15 22 35 32 44 11 9 16 21 13 27 -4 5 5 21 19 35 14 14 25 28
25 31 -1 21 2 25 15 25 9 0 15 9 15 23 0 12 9 29 20 37 11 8 20 22 20 32 0 10
5 18 10 18 6 0 10 11 10 25 0 14 5 25 10 25 6 0 10 7 10 17 0 9 3 13 7 10 8
-8 43 48 43 68 0 8 5 15 10 15 6 0 10 7 10 16 0 8 7 22 15 31 8 8 13 19 10 24
-4 5 -1 9 4 9 6 0 11 11 11 25 0 16 6 25 15 25 13 0 15 20 15 124 0 73 4 127
10 131 6 3 10 49 10 101 0 61 4 93 10 89 6 -4 10 26 10 84 0 49 5 93 10 96 6
3 10 40 10 81 0 48 4 73 10 69 6 -4 10 5 10 20 0 43 21 55 94 55 37 0 66 -4
66 -10 0 -5 9 -10 20 -10 11 0 20 -4 20 -10 0 -5 10 -10 23 -10 16 0 18 -3 8
-9 -11 -7 -8 -11 10 -16 30 -10 77 -60 85 -91 3 -13 10 -24 15 -24 5 0 9 -8 9
-19 0 -10 7 -24 15 -31 12 -10 15 -38 15 -131 0 -99 -3 -119 -15 -119 -12 0
-15 -15 -15 -75 0 -43 -4 -75 -10 -75 -5 0 -10 -11 -10 -25 0 -14 5 -25 10
-25 6 0 10 11 10 25 0 16 6 25 15 25 8 0 15 9 15 20 0 11 5 20 10 20 6 0 10 7
10 15 0 8 5 15 10 15 6 0 10 9 10 20 0 11 5 20 10 20 6 0 10 9 10 20 0 11 5
20 10 20 6 0 10 9 10 20 0 11 5 20 10 20 6 0 10 11 10 25 0 14 5 25 11 25 18
0 39 25 39 48 0 25 163 47 172 23 2 -5 12 -11 23 -13 24 -4 105 -78 105 -95 0
-7 5 -13 10 -13 11 0 80 -65 80 -75 0 -4 7 -13 15 -22 8 -8 13 -19 10 -24 -4
-5 -1 -9 5 -9 19 0 60 -48 60 -70 0 -11 5 -20 10 -20 6 0 10 -9 10 -20 0 -11
5 -20 10 -20 6 0 10 -22 10 -49 0 -31 6 -55 15 -65 20 -19 20 -66 0 -66 -12 0
-15 -15 -15 -75 0 -43 -4 -75 -10 -75 -6 0 -10 -35 -10 -85 0 -50 4 -85 10
-85 6 0 10 18 10 40 0 29 4 40 15 40 10 0 15 11 16 38 1 20 1 40 0 45 0 4 4 7
9 7 6 0 10 16 10 35 0 19 5 35 10 35 6 0 10 18 10 40 0 22 5 40 10 40 6 0 10
16 10 35 0 19 5 35 10 35 6 0 10 16 10 35 0 19 5 35 10 35 6 0 10 14 10 30 0
20 5 30 15 30 10 0 15 11 15 35 0 19 5 35 10 35 6 0 10 9 10 20 0 11 5 20 10
20 6 0 10 9 10 20 0 11 4 20 8 20 4 0 9 10 9 22 3 32 24 68 40 68 7 0 13 9 13
20 0 12 11 32 25 45 21 22 33 25 90 25 42 0 64 -4 60 -10 -3 -5 3 -10 14 -10
12 0 21 -4 21 -10 0 -5 7 -10 15 -10 8 0 15 -3 15 -7 0 -13 47 -63 59 -63 6 0
11 -4 11 -10 0 -5 7 -10 16 -10 15 0 44 -23 44 -35 0 -7 67 -75 75 -75 13 0
55 -50 55 -65 0 -8 5 -15 10 -15 6 0 10 -7 10 -15 0 -8 5 -15 10 -15 6 0 10
-9 10 -20 0 -11 5 -20 10 -20 6 0 10 -18 10 -40 0 -27 5 -43 15 -46 20 -8 22
-145 3 -141 -10 1 -14 -22 -16 -85 -1 -49 -7 -88 -12 -88 -6 0 -10 -34 -10
-75 0 -43 -4 -75 -10 -75 -6 0 -10 -36 -10 -89 0 -50 -4 -93 -10 -96 -6 -3
-10 -52 -10 -110 0 -64 -4 -106 -11 -111 -7 -4 -9 -22 -5 -45 3 -22 9 -57 12
-79 6 -36 9 -40 35 -40 16 0 29 5 29 10 0 6 5 10 11 10 14 0 39 25 39 39 0 6
5 11 10 11 6 0 10 9 10 20 0 11 5 20 10 20 6 0 10 7 10 15 0 8 5 15 10 15 6 0
10 7 10 15 0 8 7 15 15 15 9 0 15 9 15 25 0 14 4 25 9 25 5 0 14 13 21 30 7
17 17 30 22 30 6 0 8 9 5 21 -3 12 0 22 9 26 8 3 14 11 14 18 0 7 10 20 23 29
13 10 24 27 24 39 1 12 7 23 13 25 5 2 10 12 10 22 0 10 5 22 10 25 6 3 10 16
10 28 0 12 9 33 20 47 11 14 20 33 20 43 0 10 7 20 15 23 8 4 15 17 15 30 0
13 5 24 10 24 6 0 10 9 10 20 0 11 5 20 10 20 6 0 10 11 10 25 0 14 5 25 10
25 6 0 10 11 10 24 0 14 5 28 10 31 6 3 10 17 10 31 0 15 6 24 15 24 8 0 15 9
15 19 0 11 5 23 10 26 6 3 10 17 10 31 0 13 5 24 10 24 6 0 10 11 10 25 0 14
5 25 10 25 6 0 10 13 10 29 0 17 5 33 10 36 6 4 10 53 10 114 0 84 3 111 15
121 11 9 15 35 15 106 0 51 4 96 10 99 6 3 10 40 10 81 0 43 4 74 10 74 6 0
10 27 10 61 0 41 5 65 15 76 8 8 13 19 10 24 -4 5 24 9 64 9 38 0 73 -4 76
-10 3 -5 15 -10 26 -10 22 0 49 -22 49 -39 0 -5 9 -8 21 -6 15 3 19 0 15 -10
-3 -9 3 -15 17 -17 12 -2 21 -9 19 -16 -1 -6 2 -12 8 -12 5 0 10 -7 10 -15 0
-8 5 -15 10 -15 6 0 10 -9 10 -20 0 -11 5 -20 10 -20 6 0 10 -11 10 -25 0 -13
6 -29 13 -36 14 -13 11 -167 -3 -184 -5 -6 -10 -43 -11 -83 -1 -40 -6 -72 -11
-72 -4 0 -8 -18 -8 -41 0 -24 4 -38 10 -34 6 3 10 15 10 26 0 22 22 49 40 49
6 0 9 4 5 9 -3 5 0 15 7 23 7 7 15 22 16 33 2 11 8 22 13 23 5 2 9 12 9 23 0
10 4 19 8 19 5 0 14 16 22 35 8 19 17 35 22 35 4 0 7 3 7 8 -3 19 2 32 14 32
7 0 19 9 27 20 12 17 26 20 87 20 42 0 73 -4 73 -10 0 -5 7 -10 15 -10 8 0 15
-4 15 -10 0 -5 7 -10 15 -10 15 0 65 -42 65 -55 0 -3 11 -17 25 -31 14 -14 25
-21 25 -17 0 4 11 -4 24 -19 12 -15 26 -25 30 -21 3 3 6 -3 6 -15 0 -12 6 -22
13 -23 9 0 9 -2 0 -6 -14 -5 28 -53 47 -53 5 0 10 -9 10 -20 0 -11 3 -20 8
-20 9 0 32 -49 32 -71 0 -10 5 -19 11 -21 13 -4 13 -259 0 -267 -5 -3 -9 -42
-10 -86 -1 -44 -6 -81 -11 -83 -6 -2 -10 -22 -10 -43 0 -24 4 -38 10 -34 6 3
10 17 10 31 0 13 5 24 10 24 6 0 10 20 10 45 0 25 5 45 10 45 6 0 10 18 10 40
0 28 4 40 14 40 9 0 16 15 20 40 3 22 9 58 12 80 3 22 10 40 15 40 5 0 9 14 9
30 0 17 5 30 10 30 6 0 10 16 10 35 0 19 5 35 10 35 6 0 10 14 10 30 0 17 5
30 10 30 6 0 10 11 10 24 0 13 7 29 15 36 8 7 15 21 15 31 0 11 5 19 10 19 6
0 10 11 10 25 0 14 5 25 10 25 6 0 10 12 10 26 0 14 4 23 10 19 6 -3 10 3 10
14 0 12 5 21 10 21 6 0 10 9 10 21 0 11 5 17 10 14 12 -7 42 20 33 29 -7 7 24
9 87 6 25 -1 48 -6 51 -12 4 -6 14 -8 24 -5 9 4 14 3 10 -3 -3 -6 1 -13 9 -16
9 -3 16 -12 16 -20 0 -8 7 -14 15 -14 8 0 15 -5 15 -11 0 -5 5 -7 10 -4 6 3
10 -2 10 -12 0 -15 2 -16 10 -3 9 13 10 13 11 0 1 -8 1 -18 0 -22 0 -5 8 -8
20 -8 11 0 17 -4 14 -10 -3 -5 2 -10 12 -10 11 0 24 -13 32 -31 7 -16 15 -28
18 -25 8 8 33 -21 33 -37 0 -9 13 -21 29 -28 16 -7 27 -17 25 -21 -3 -4 0 -8
5 -8 6 0 11 -5 11 -11 0 -7 9 -20 21 -30 11 -9 20 -20 20 -23 -1 -3 -1 -18 -1
-33 0 -22 2 -25 10 -13 6 10 10 -42 10 -157 0 -95 -4 -173 -8 -173 -4 0 -9
-35 -10 -77 -2 -43 -7 -80 -11 -83 -4 -3 -9 -41 -10 -85 -1 -44 -6 -82 -11
-85 -17 -11 -32 -362 -16 -372 8 -6 8 -8 -1 -8 -15 0 17 -60 32 -60 10 0 27
15 78 70 22 24 39 54 42 75 0 6 6 9 13 7 7 -1 12 9 12 23 0 14 5 25 11 25 5 0
7 4 4 10 -3 5 1 10 10 10 9 0 19 9 22 20 3 11 9 20 14 20 5 0 9 11 9 25 0 14
5 25 10 25 6 0 10 7 10 16 0 8 5 12 10 9 6 -3 10 1 10 10 0 8 4 23 9 33 5 9
12 25 15 35 3 10 10 15 16 12 6 -4 10 5 10 19 0 14 4 26 9 26 8 0 25 56 22 73
0 4 6 7 14 7 9 0 15 9 15 23 0 13 3 27 7 31 4 3 8 17 10 29 2 12 8 24 13 25 6
2 10 12 10 23 0 10 7 19 15 19 8 0 15 9 15 20 0 11 5 20 10 20 6 0 10 11 10
25 0 14 5 25 10 25 6 0 10 11 10 24 0 14 5 28 11 31 6 4 8 13 5 21 -3 7 0 19
7 26 7 7 13 22 15 33 2 11 10 25 18 31 8 6 14 18 14 27 0 9 4 19 10 22 6 3 10
17 10 30 0 13 5 27 10 30 6 3 10 17 10 31 0 13 4 24 9 24 5 0 12 35 15 78 10
150 18 197 33 205 8 5 14 21 13 35 -4 50 0 73 10 67 6 -4 10 10 10 34 0 23 4
41 9 41 5 0 11 10 14 23 10 43 56 141 71 153 9 6 16 16 16 23 0 6 5 11 10 11
6 0 10 9 10 21 0 11 5 17 10 14 6 -3 10 1 10 10 0 10 -5 13 -12 9 -7 -4 -2 4
12 18 14 13 28 23 33 21 4 -2 7 1 7 6 0 6 7 11 15 11 9 0 15 9 15 21 0 16 5
20 20 16 11 -3 20 -2 20 3 0 23 103 40 135 23 11 -6 35 -14 53 -18 22 -4 32
-12 32 -25 0 -11 12 -24 30 -32 17 -7 30 -16 30 -20 0 -5 6 -8 14 -8 8 0 16
-6 19 -12 3 -10 8 -10 23 2 15 11 16 11 7 0 -17 -19 -16 -33 1 -27 10 4 13 1
9 -9 -3 -8 9 -27 31 -47 20 -19 36 -36 36 -40 0 -4 9 -16 20 -27 11 -11 20
-29 20 -40 0 -11 5 -20 10 -20 6 0 10 -9 10 -20 0 -11 5 -20 10 -20 6 0 10
-16 10 -35 0 -23 5 -35 14 -35 19 0 22 -14 20 -95 -1 -38 -2 -96 -3 -127 -1
-42 -5 -58 -15 -58 -9 0 -13 -14 -13 -48 0 -27 -5 -58 -12 -70 -6 -11 -11 -34
-11 -51 0 -17 -4 -31 -10 -31 -5 0 -10 -16 -10 -35 0 -19 -5 -35 -11 -35 -7 0
-10 -13 -7 -34 3 -24 0 -32 -9 -29 -9 3 -13 -4 -13 -21 0 -20 -4 -24 -17 -19
-16 6 -17 5 -3 -12 12 -15 12 -17 1 -10 -11 6 -13 4 -8 -8 3 -9 -1 -23 -9 -32
-8 -8 -12 -20 -8 -27 5 -7 2 -9 -7 -6 -11 4 -16 -3 -17 -25 -2 -17 -7 -34 -13
-38 -6 -3 -11 -10 -11 -15 0 -5 -4 -8 -8 -7 -5 2 -7 -6 -5 -17 3 -14 -2 -20
-16 -20 -12 0 -19 -7 -19 -19 0 -10 -14 -32 -30 -49 -16 -18 -30 -36 -30 -41
0 -5 -11 -29 -25 -52 -14 -24 -25 -37 -25 -29 0 10 -9 5 -25 -14 -13 -16 -22
-33 -19 -37 3 -5 -1 -9 -8 -10 -10 0 -10 -2 0 -6 6 -2 12 -11 12 -18 0 -7 6
-16 13 -18 9 -4 9 -8 -2 -15 -10 -7 -10 -14 -2 -30 6 -11 11 -34 11 -51 0 -21
5 -31 15 -31 8 0 15 -9 15 -19 0 -11 5 -21 10 -23 6 -2 12 -13 13 -25 0 -12 5
-19 9 -17 4 3 8 -2 8 -11 0 -21 53 -75 74 -75 9 0 16 -7 16 -15 0 -12 14 -15
66 -14 59 1 65 3 61 20 -3 11 -1 16 4 13 6 -3 21 6 33 21 13 15 29 24 35 21 6
-4 11 -2 11 4 0 6 3 9 8 6 4 -2 16 2 27 10 10 8 16 14 12 14 -3 0 5 12 19 27
19 20 21 28 12 35 -10 6 -10 8 2 9 8 1 19 1 23 0 5 -1 6 3 2 9 -3 5 -1 10 4
10 6 0 11 6 11 14 0 9 7 12 20 9 16 -4 20 0 20 20 0 14 6 28 13 30 9 4 8 8 -3
17 -13 10 -13 11 2 7 9 -3 22 1 28 9 7 8 10 14 6 14 -3 0 2 9 11 19 9 11 21
17 27 14 6 -4 2 3 -8 15 -11 12 -16 22 -13 22 17 0 22 -3 20 -11 -2 -4 4 -6
12 -3 8 4 15 16 15 28 0 12 9 32 20 44 11 12 20 26 20 32 0 5 5 10 10 10 6 0
9 3 9 8 -3 20 2 32 16 32 8 0 15 6 15 13 0 7 8 22 18 33 9 10 19 28 20 39 2
11 8 22 13 23 5 2 9 12 9 23 0 10 5 19 10 19 6 0 10 11 10 25 0 14 5 25 10 25
6 0 10 6 10 14 0 8 7 16 15 20 8 3 15 17 15 31 0 18 4 24 12 19 8 -5 9 -2 5 9
-3 9 0 23 8 31 8 7 12 23 10 34 -2 15 1 19 11 15 9 -3 14 2 14 15 0 11 -3 22
-7 25 -5 2 -3 2 4 1 14 -3 23 19 18 46 -4 19 -2 20 12 8 12 -9 15 -9 9 -1 -4
7 -2 13 3 13 6 0 11 12 11 26 0 14 4 23 9 19 13 -7 10 36 -3 55 -10 13 -9 13
6 1 15 -11 19 -11 23 0 2 8 3 23 1 34 -4 25 4 41 14 25 4 -7 7 -1 7 16 0 15 6
30 12 32 6 2 9 8 6 12 -3 5 4 14 15 20 14 8 19 17 15 28 -5 13 -3 14 6 5 13
-13 26 -4 47 32 11 19 11 19 12 -2 0 -13 6 -23 13 -23 12 0 48 -31 79 -69 10
-12 13 -21 7 -21 -8 0 -10 -17 -7 -50 4 -38 2 -50 -8 -50 -9 0 -14 -12 -14
-30 0 -17 -7 -42 -16 -56 -12 -17 -13 -24 -4 -22 7 2 15 -3 18 -11 3 -9 0 -12
-10 -8 -11 4 -19 -5 -27 -32 -6 -21 -11 -48 -11 -60 0 -11 -4 -21 -9 -21 -6 0
-43 -96 -46 -120 0 -3 -4 -11 -8 -17 -5 -8 -4 -13 3 -13 11 0 2 -14 -34 -50
-10 -10 -19 -30 -18 -44 0 -14 -4 -26 -9 -26 -5 0 -9 -9 -9 -20 0 -11 -4 -20
-10 -20 -5 0 -10 -12 -10 -26 0 -16 -4 -23 -11 -18 -8 5 -10 -1 -6 -18 5 -18
2 -28 -7 -31 -8 -3 -16 -18 -18 -34 -2 -16 -8 -27 -15 -25 -7 1 -13 -7 -13
-19 0 -11 -4 -18 -8 -15 -5 3 -9 -1 -9 -8 0 -22 -25 -76 -35 -76 -5 0 -7 -4
-3 -9 3 -5 -2 -16 -10 -24 -8 -9 -15 -25 -15 -36 0 -12 -6 -21 -15 -21 -8 0
-15 -7 -15 -15 0 -8 -5 -15 -11 -15 -7 0 -9 -10 -7 -25 3 -13 1 -22 -3 -19 -5
3 -16 -13 -25 -35 -9 -23 -20 -38 -25 -35 -5 3 -9 -2 -9 -11 0 -10 -5 -13 -12
-9 -7 5 -9 2 -5 -9 6 -15 -22 -57 -39 -57 -5 0 -18 -20 -29 -45 -11 -25 -25
-45 -31 -45 -9 0 -44 -29 -104 -83 -20 -19 -60 -39 -60 -31 0 3 -6 1 -13 -5
-8 -6 -32 -12 -54 -14 -22 -2 -46 -7 -53 -12 -17 -11 -107 -7 -130 5 -10 5
-33 10 -50 10 -18 0 -29 4 -25 10 4 6 -7 10 -24 10 -17 0 -31 5 -31 10 0 6 -9
10 -20 10 -11 0 -20 7 -20 15 0 13 -18 20 -42 16 -5 0 -8 3 -8 9 0 5 -8 10
-18 10 -9 0 -23 9 -30 20 -7 12 -18 18 -25 13 -7 -4 -6 0 2 11 12 15 12 17 0
14 -8 -2 -13 3 -11 10 1 8 -2 11 -7 8 -11 -7 -61 42 -61 59 0 7 -9 15 -20 18
-12 3 -20 14 -20 26 0 12 -3 20 -7 20 -21 -3 -31 3 -29 19 0 10 -5 16 -13 14
-8 -2 -11 3 -8 13 8 18 -4 20 -22 3 -10 -10 -10 -8 0 11 11 19 11 25 2 28 -7
3 -13 10 -13 17 0 22 -25 66 -37 66 -7 0 -13 11 -13 25 0 14 -6 25 -12 25 -9
0 -8 4 2 10 10 6 11 10 3 10 -7 0 -13 9 -13 21 0 11 -4 17 -10 14 -6 -4 -10
10 -10 34 0 23 -4 41 -10 41 -5 0 -10 18 -10 39 0 22 -4 41 -9 43 -6 2 -11 24
-12 50 -2 36 -6 45 -15 37 -8 -7 -15 -6 -20 2 -4 8 -3 9 4 5 7 -4 12 -2 12 3
0 6 -7 11 -16 11 -11 0 -15 -6 -11 -20 3 -10 -1 -24 -9 -31 -8 -6 -14 -22 -14
-35 0 -13 -4 -24 -10 -24 -5 0 -10 -9 -10 -20 0 -11 -4 -20 -9 -20 -9 0 -20
-42 -24 -87 -1 -15 -9 -23 -19 -23 -11 0 -18 -8 -18 -20 0 -11 -4 -20 -10 -20
-5 0 -10 -11 -10 -25 0 -14 -5 -25 -11 -25 -5 0 -8 -4 -4 -9 3 -5 -2 -16 -10
-24 -8 -9 -15 -25 -15 -36 0 -12 -4 -21 -9 -21 -5 0 -11 -10 -13 -22 -2 -13
-9 -22 -16 -20 -8 1 -11 -2 -8 -7 4 -5 1 -15 -6 -23 -7 -7 -14 -22 -16 -32 -2
-10 -10 -25 -18 -33 -8 -8 -14 -18 -14 -23 0 -5 -7 -15 -15 -24 -8 -8 -16 -26
-17 -40 -1 -13 -6 -22 -10 -20 -4 3 -8 0 -8 -5 0 -6 -7 -11 -16 -11 -8 0 -12
-5 -9 -10 3 -6 -1 -10 -9 -10 -9 0 -16 -9 -16 -20 0 -11 -4 -20 -10 -20 -5 0
-10 -5 -10 -10 0 -13 -45 -60 -57 -60 -5 0 -15 -9 -23 -20 -8 -11 -20 -20 -28
-20 -7 0 -20 -7 -29 -15 -8 -8 -19 -13 -24 -9 -5 3 -12 -2 -15 -10 -9 -23
-174 -24 -174 -1 0 8 -7 15 -16 15 -9 0 -13 -5 -9 -12 3 -7 -2 -3 -11 10 -9
12 -22 22 -29 22 -7 0 -26 14 -44 30 -17 17 -36 28 -41 25 -6 -4 -7 1 -3 11 5
14 2 16 -15 12 -14 -4 -19 -2 -15 8 5 13 -65 91 -78 87 -4 -1 -5 6 -2 17 5 17
0 26 -34 65 -7 7 -13 21 -13 29 0 9 -4 16 -10 16 -5 0 -10 11 -10 24 0 14 -4
28 -10 31 -5 3 -10 25 -10 49 0 23 -5 47 -11 53 -7 7 -9 49 -5 129 4 66 9 181
12 257 3 75 10 137 15 137 5 0 9 40 9 89 0 50 5 93 10 96 6 3 10 33 10 66 0
49 3 59 18 59 14 0 15 2 2 10 -10 6 -11 10 -2 10 15 0 17 136 2 145 -22 13
-60 -62 -60 -118 0 -15 -4 -27 -10 -27 -5 0 -10 -16 -10 -35 0 -19 -4 -35 -10
-35 -5 0 -10 -16 -10 -35 0 -22 -6 -38 -15 -41 -10 -4 -15 -20 -15 -44 0 -21
-5 -40 -10 -42 -6 -2 -11 -20 -12 -41 -1 -20 -5 -37 -10 -37 -4 0 -8 -13 -8
-30 0 -16 -4 -30 -9 -30 -5 0 -11 -17 -15 -37 -14 -96 -19 -113 -32 -113 -9 0
-14 -12 -14 -34 0 -19 -4 -38 -10 -41 -5 -3 -10 -19 -10 -36 0 -16 -4 -29 -9
-29 -6 0 -8 -9 -6 -20 2 -11 -2 -25 -8 -32 -7 -7 -14 -31 -15 -53 -2 -22 -8
-41 -13 -43 -5 -2 -9 -21 -9 -42 0 -21 -4 -40 -10 -42 -5 -1 -10 -18 -12 -35
-1 -19 -8 -33 -15 -33 -8 0 -13 -13 -13 -34 0 -19 -4 -38 -10 -41 -5 -3 -10
-24 -10 -46 0 -24 -4 -38 -10 -34 -6 4 -10 -5 -10 -19 0 -14 -4 -26 -10 -26
-5 0 -10 -7 -10 -16 0 -8 -4 -13 -9 -9 -5 3 -11 -5 -13 -17 -3 -21 -9 -23 -80
-26 -66 -2 -78 0 -78 13 0 9 -4 14 -9 10 -5 -3 -16 2 -24 10 -9 8 -23 15 -31
15 -9 0 -16 5 -16 10 0 6 -9 10 -21 10 -11 0 -17 5 -14 10 3 6 -1 10 -10 10
-19 0 -45 23 -45 39 0 6 -4 11 -10 11 -5 0 -10 7 -10 15 0 8 -7 15 -15 15 -8
0 -15 7 -15 15 0 8 -4 15 -10 15 -5 0 -10 9 -10 19 0 11 -4 23 -10 26 -5 3
-10 15 -10 26 0 10 -4 19 -10 19 -5 0 -10 14 -10 30 0 17 -4 30 -10 30 -6 0
-10 72 -10 195 0 123 4 195 10 195 6 0 10 37 10 90 0 53 4 90 10 90 6 0 10 35
10 86 0 54 4 83 10 79 6 -4 10 26 10 84 0 49 5 93 10 96 6 3 10 42 10 86 0 71
-2 80 -17 77 -10 -2 -19 -13 -21 -26 -2 -12 -8 -22 -13 -22 -5 0 -9 -9 -9 -20
0 -11 -4 -20 -10 -20 -5 0 -10 -11 -10 -25 0 -18 -4 -23 -15 -19 -11 5 -15 -1
-15 -25 0 -17 -4 -31 -10 -31 -5 0 -10 -11 -10 -25 0 -14 -4 -25 -10 -25 -5 0
-10 -7 -10 -15 0 -24 -24 -95 -32 -95 -5 0 -8 -15 -8 -34 0 -19 -4 -38 -10
-41 -5 -3 -10 -17 -10 -31 0 -15 -6 -24 -15 -24 -10 0 -15 -10 -15 -34 0 -19
-4 -38 -10 -41 -5 -3 -10 -22 -10 -41 0 -23 -4 -33 -11 -28 -8 5 -10 -6 -7
-35 2 -29 0 -41 -9 -41 -8 0 -13 -14 -13 -39 0 -22 -4 -43 -10 -46 -5 -3 -10
-26 -10 -50 0 -29 -5 -45 -15 -49 -10 -4 -15 -20 -15 -50 0 -25 -4 -48 -10
-51 -5 -3 -10 -31 -10 -61 0 -30 -4 -54 -10 -54 -6 0 -10 -30 -10 -69 0 -39
-4 -73 -10 -76 -5 -3 -10 -22 -10 -41 0 -19 -4 -34 -10 -34 -5 0 -10 -8 -10
-17 0 -10 -12 -24 -27 -30 -33 -16 -193 -18 -193 -2 0 5 -4 7 -10 4 -5 -3 -10
-2 -10 2 0 5 -10 13 -22 18 -13 6 -24 20 -26 33 -2 12 -8 22 -13 22 -5 0 -9
18 -9 40 0 22 -4 40 -10 40 -11 0 -7 267 5 313 5 17 3 27 -4 27 -6 0 -11 -7
-11 -15 0 -8 -4 -15 -10 -15 -5 0 -10 -11 -10 -25 0 -19 -4 -23 -17 -18 -11 4
-14 3 -9 -5 4 -6 -2 -29 -13 -50 -11 -22 -17 -42 -14 -46 4 -3 1 -6 -5 -6 -7
0 -12 -9 -12 -20 0 -11 -4 -20 -10 -20 -5 0 -10 -7 -10 -15 0 -8 -4 -15 -10
-15 -5 0 -10 -9 -10 -20 0 -12 -7 -20 -17 -20 -15 0 -16 -2 -3 -10 10 -6 11
-10 3 -10 -7 0 -13 -7 -13 -15 0 -8 -3 -15 -8 -15 -9 0 -38 -61 -34 -73 1 -5
-2 -6 -8 -2 -9 5 -15 -9 -7 -18 1 -2 -9 -14 -23 -28 -35 -37 -70 -78 -70 -84
0 -10 -69 -75 -80 -75 -5 0 -10 -4 -10 -10 0 -5 -9 -10 -20 -10 -11 0 -20 -4
-20 -10 0 -5 -7 -10 -16 -10 -8 0 -22 -7 -30 -15 -22 -21 -154 -21 -154 0 0
10 -10 15 -28 15 -16 0 -34 8 -42 20 -8 11 -19 20 -26 20 -6 0 -19 9 -29 20
-10 11 -22 20 -27 20 -13 0 -33 21 -41 43 -4 10 -11 16 -16 13 -5 -3 -14 8
-21 24 -7 16 -16 27 -21 24 -5 -3 -9 2 -9 10 0 9 -4 16 -10 16 -5 0 -10 6 -10
14 0 21 -26 67 -33 59 -4 -3 -8 3 -8 15 -2 38 -4 43 -14 50 -28 20 -35 84 -35
315 0 130 4 238 9 241 5 3 9 49 10 102 2 69 6 101 17 111 9 10 14 36 14 78 0
35 5 67 10 70 13 8 13 215 0 215 -5 0 -10 -4 -10 -10 0 -5 -7 -10 -15 -10 -14
0 -20 -26 -18 -77 1 -7 -3 -10 -8 -7 -5 3 -9 -11 -9 -30 0 -20 -4 -36 -10 -36
-5 0 -10 -16 -10 -35 0 -19 -4 -35 -9 -35 -8 0 -14 -23 -27 -112 -4 -23 -12
-38 -20 -38 -9 0 -14 -12 -14 -35 0 -19 -4 -35 -9 -35 -8 0 -14 -23 -27 -112
-4 -21 -10 -38 -15 -38 -5 0 -9 -13 -9 -30 0 -16 -4 -30 -10 -30 -5 0 -10 -21
-10 -47 0 -30 -3 -43 -9 -35 -11 17 -21 -7 -21 -49 0 -16 -4 -29 -10 -29 -5 0
-10 -18 -10 -39 0 -22 -4 -43 -10 -46 -5 -3 -10 -19 -10 -36 0 -16 -4 -29 -10
-29 -5 0 -10 -16 -10 -35 0 -19 -4 -35 -10 -35 -5 0 -10 -15 -10 -34 0 -19 -4
-38 -10 -41 -5 -3 -10 -22 -10 -41 0 -24 -5 -34 -15 -34 -10 0 -15 -11 -15
-35 0 -19 -4 -35 -10 -35 -5 0 -10 -12 -10 -26 0 -14 -4 -23 -10 -19 -5 3 -10
-3 -10 -14 0 -12 -4 -21 -10 -21 -5 0 -10 -7 -10 -16 0 -12 -14 -15 -80 -13
-46 1 -77 6 -74 11 3 5 -3 12 -15 15 -12 3 -21 9 -21 14 0 5 -7 9 -15 9 -8 0
-15 5 -15 10 0 6 -9 10 -20 10 -11 0 -20 5 -20 11 0 5 -4 8 -8 5 -7 -4 -42 27
-42 38 0 2 -15 20 -32 40 -53 56 -78 96 -78 121 0 8 -4 15 -10 15 -5 0 -10 23
-10 50 0 28 -4 50 -10 50 -6 0 -10 51 -10 134 0 79 4 137 10 141 6 3 10 46 10
96 0 53 4 89 10 89 6 0 10 33 10 79 0 44 5 83 10 86 6 3 10 46 10 96 0 72 3
89 15 89 12 0 15 19 15 110 0 109 -6 127 -33 97 -21 -23 -37 -56 -37 -77 0
-11 -4 -20 -10 -20 -5 0 -10 -11 -10 -25 0 -14 -4 -25 -10 -25 -5 0 -10 -9
-10 -20 0 -11 -6 -20 -13 -20 -7 0 -14 -12 -15 -27 -1 -15 -7 -32 -12 -37 -6
-6 -10 -18 -10 -28 0 -10 -4 -18 -10 -18 -5 0 -10 -13 -10 -30 0 -16 -4 -30
-10 -30 -5 0 -10 -15 -10 -34 0 -19 -4 -36 -10 -38 -5 -1 -10 -18 -12 -35 -1
-18 -6 -33 -10 -33 -4 0 -8 -13 -8 -30 0 -20 -5 -30 -15 -30 -10 0 -15 -11
-15 -35 0 -19 -4 -35 -8 -35 -4 0 -9 -17 -10 -37 -2 -21 -7 -39 -12 -41 -6 -2
-10 -24 -10 -48 0 -24 -4 -44 -10 -44 -5 0 -10 -20 -10 -45 0 -25 -4 -45 -10
-45 -5 0 -10 -25 -10 -55 0 -42 -3 -55 -15 -55 -12 0 -15 -14 -15 -65 0 -37
-4 -65 -10 -65 -6 0 -10 -28 -10 -65 0 -37 -4 -65 -10 -65 -5 0 -10 -14 -10
-30 0 -19 -9 -40 -25 -55 -22 -23 -32 -25 -115 -25 -53 0 -90 4 -90 10 0 6 -6
10 -13 10 -7 0 -19 9 -27 20 -8 11 -20 20 -27 20 -7 0 -13 11 -13 25 0 14 -4
25 -10 25 -6 0 -10 105 -10 295 0 190 -4 295 -10 295 -5 0 -10 -9 -10 -20 0
-11 -4 -20 -10 -20 -5 0 -10 -9 -10 -19 0 -11 -4 -23 -10 -26 -5 -3 -10 -16
-10 -28 0 -17 -3 -19 -9 -8 -7 11 -10 9 -16 -8 -3 -11 -11 -21 -16 -21 -5 0
-9 -11 -9 -25 0 -14 -4 -25 -10 -25 -5 0 -10 -9 -10 -20 0 -11 -4 -20 -10 -20
-5 0 -10 -11 -10 -25 0 -14 -4 -25 -10 -25 -5 0 -10 -9 -10 -21 0 -11 -4 -18
-8 -15 -12 7 -42 -31 -42 -54 0 -11 -4 -20 -10 -20 -5 0 -10 -9 -10 -21 0 -11
-4 -17 -10 -14 -5 3 -10 -1 -10 -9 0 -9 -4 -16 -8 -16 -5 0 -14 -16 -22 -35
-8 -19 -18 -35 -23 -35 -12 0 -29 -20 -46 -52 -8 -16 -18 -28 -23 -28 -4 0 -8
-5 -8 -11 0 -11 -25 -39 -35 -39 -3 0 -15 -9 -27 -20 -12 -11 -28 -20 -35 -20
-7 0 -13 -4 -13 -10 0 -5 -11 -10 -25 -10 -16 0 -25 -6 -25 -15 0 -10 -10 -15
-30 -15 -16 0 -30 -4 -30 -10 0 -6 -30 -10 -70 -10 -40 0 -70 4 -70 10 0 6
-13 10 -30 10 -20 0 -30 5 -30 15 0 8 -8 15 -18 15 -10 0 -24 9 -32 20 -11 15
-17 17 -29 7 -12 -9 -13 -9 -7 1 4 7 2 12 -4 12 -6 0 -8 6 -4 13 4 6 3 9 -1 4
-10 -9 -47 22 -39 34 3 5 0 9 -5 9 -6 0 -11 6 -11 13 0 7 -9 19 -20 27 -11 8
-20 22 -20 32 0 10 -7 18 -15 18 -9 0 -15 9 -15 25 0 14 -4 25 -10 25 -5 0
-10 9 -10 20 0 11 -4 20 -10 20 -5 0 -10 16 -10 35 0 19 -4 35 -10 35 -5 0
-10 18 -10 40 0 22 -4 40 -10 40 -5 0 -10 -4 -10 -10 0 -5 -7 -10 -15 -10 -8
0 -15 -9 -15 -20 0 -11 -4 -20 -8 -20 -5 0 -14 -16 -22 -35 -8 -19 -17 -35
-22 -35 -4 0 -8 -9 -8 -21 0 -11 -4 -17 -10 -14 -5 3 -10 -1 -10 -9 0 -9 -5
-16 -11 -16 -11 0 -39 -25 -39 -35 0 -10 -89 -95 -100 -95 -5 0 -10 -7 -10
-15 0 -8 -7 -15 -16 -15 -9 0 -12 -5 -8 -12 4 -6 3 -8 -4 -4 -6 3 -17 -1 -25
-9 -9 -8 -25 -15 -36 -15 -12 0 -21 -4 -21 -10 0 -5 -9 -10 -20 -10 -11 0 -20
-4 -20 -9 0 -6 -53 -10 -120 -10 -72 0 -118 4 -115 10 4 5 -1 9 -10 9 -17 0
-51 18 -73 38 -7 7 -18 10 -23 7 -5 -4 -9 3 -9 15 0 22 -41 70 -60 70 -5 0
-10 9 -10 20 0 11 -4 20 -10 20 -5 0 -10 11 -10 25 0 14 -4 25 -10 25 -5 0
-10 13 -10 29 0 16 -4 31 -9 33 -6 2 -11 30 -12 63 -2 51 -5 61 -21 62 -12 1
-18 -5 -18 -18 0 -10 -5 -19 -11 -19 -16 0 -38 -31 -39 -52 0 -10 -4 -18 -10
-18 -5 0 -10 -7 -10 -16 0 -8 -4 -12 -10 -9 -5 3 -10 -1 -10 -10 0 -16 -22
-45 -35 -45 -4 0 -13 -7 -21 -15 -9 -8 -12 -15 -8 -15 3 0 1 -7 -6 -15 -7 -8
-9 -15 -6 -15 4 0 -9 -16 -28 -35 -20 -19 -40 -35 -46 -35 -5 0 -10 -5 -10
-10 0 -14 -46 -60 -60 -60 -6 0 -9 -4 -6 -8 2 -4 -5 -9 -17 -9 -12 -1 -23 -7
-25 -13 -2 -5 -15 -10 -28 -10 -14 0 -23 -4 -19 -9 10 -17 -55 -26 -167 -22
-35 1 -48 5 -48 16 0 8 -9 15 -20 15 -11 0 -20 5 -20 10 0 6 -8 10 -18 10 -23
0 -86 59 -90 85 -2 10 -12 27 -23 36 -10 9 -19 24 -19 33 0 9 -7 16 -15 16 -9
0 -15 9 -15 25 0 14 -4 25 -10 25 -5 0 -10 14 -10 30 0 17 -4 30 -10 30 -5 0
-10 16 -10 35 0 19 -4 35 -10 35 -5 0 -10 9 -10 20 0 11 -4 20 -10 20 -5 0
-10 -9 -10 -20 0 -11 -7 -20 -15 -20 -8 0 -15 -7 -15 -16 0 -8 -4 -12 -10 -9
-6 4 -10 -5 -10 -19 0 -14 -4 -26 -10 -26 -5 0 -10 -9 -10 -21 0 -11 -4 -17
-10 -14 -5 3 -10 -1 -10 -9 0 -9 -4 -16 -10 -16 -5 0 -10 -7 -10 -16 0 -8 -4
-12 -10 -9 -5 3 -10 -1 -10 -9 0 -8 -16 -31 -35 -50 -19 -20 -35 -40 -35 -46
0 -6 -4 -8 -10 -5 -5 3 -10 -2 -10 -12 -1 -19 -22 -53 -34 -53 -9 0 -56 -47
-56 -55 0 -8 -27 -35 -35 -35 -7 0 -61 -38 -89 -62 -11 -10 -28 -18 -38 -18
-10 0 -18 -5 -18 -11 0 -16 -26 -39 -44 -39 -9 0 -16 -4 -16 -10 0 -5 -9 -10
-20 -10 -11 0 -20 -4 -20 -10 0 -5 -9 -10 -21 -10 -34 0 -49 -24 -49 -79 0
-28 -4 -51 -10 -51 -6 0 -10 -33 -10 -78 0 -66 3 -80 20 -92 11 -8 20 -20 20
-28 0 -16 24 -42 39 -42 6 0 11 -8 11 -18 0 -10 9 -28 20 -40 11 -12 20 -28
20 -37 0 -9 5 -13 10 -10 6 3 10 -3 10 -14 0 -12 5 -21 10 -21 6 0 10 -9 10
-20 0 -11 5 -20 10 -20 6 0 10 -5 10 -10 0 -6 11 -21 25 -34 14 -13 25 -33 25
-45 0 -11 5 -21 10 -21 6 0 10 -9 10 -20 0 -11 5 -20 10 -20 6 0 10 -11 10
-25 0 -14 5 -25 10 -25 6 0 10 -9 10 -20 0 -11 7 -20 15 -20 8 0 15 -9 15 -20
0 -11 5 -20 10 -20 6 0 10 -11 10 -25 0 -14 5 -25 10 -25 6 0 10 -13 10 -30 0
-16 5 -30 10 -30 6 0 10 -11 10 -25 0 -14 5 -25 10 -25 6 0 10 -13 10 -30 0
-20 5 -30 15 -30 11 0 15 -11 15 -41 0 -22 4 -38 8 -35 5 3 9 -14 11 -37 1
-23 6 -44 10 -47 9 -5 19 -59 27 -152 3 -32 10 -58 15 -58 5 0 9 -42 9 -94 0
-53 4 -98 10 -101 6 -4 10 -118 10 -311 0 -196 -4 -304 -10 -304 -5 0 -10 -20
-10 -45 0 -25 -4 -45 -10 -45 -5 0 -10 -16 -10 -35 0 -19 -4 -35 -10 -35 -5 0
-10 -9 -10 -20 0 -11 -4 -20 -9 -20 -5 0 -13 -9 -16 -20 -3 -11 -15 -20 -26
-20 -10 0 -19 -7 -19 -15 0 -8 -7 -15 -15 -15 -8 0 -15 -4 -15 -10 0 -5 -22
-10 -50 -10 -27 0 -50 5 -50 10 0 6 -13 10 -30 10 -20 0 -30 5 -30 15 0 8 -9
15 -20 15 -11 0 -20 5 -20 10 0 6 -7 10 -15 10 -8 0 -15 5 -15 10 0 6 -8 10
-18 10 -10 0 -24 9 -32 20 -8 11 -23 20 -33 20 -10 0 -15 5 -12 10 6 9 -8 14
-27 11 -5 0 -8 4 -8 9 0 11 -45 60 -55 60 -9 0 -55 48 -55 57 0 5 -9 15 -20
23 -11 8 -20 22 -20 32 0 10 -5 18 -11 18 -14 0 -39 25 -39 39 0 6 -4 11 -10
11 -5 0 -10 8 -10 18 0 10 -9 24 -20 32 -11 8 -20 22 -20 32 0 10 -4 18 -10
18 -5 0 -10 11 -10 25 0 16 -6 25 -15 25 -8 0 -15 9 -15 20 0 11 -4 20 -10 20
-5 0 -10 16 -10 35 0 19 -4 35 -10 35 -5 0 -10 13 -10 29 0 16 -4 31 -9 33 -6
2 -11 27 -12 56 -2 28 -6 52 -11 52 -4 0 -8 36 -8 80 0 64 -3 80 -15 80 -13 0
-15 22 -15 138 0 76 -4 142 -9 147 -18 18 -29 822 -16 1088 6 114 5 137 -7
137 -8 0 -24 9 -36 20 -12 11 -24 20 -27 20 -10 0 -55 49 -55 60 0 5 -4 10
-10 10 -5 0 -10 15 -10 33 0 19 -3 37 -7 41 -11 10 -11 56 -1 56 4 0 8 10 8
23 1 28 22 57 43 57 8 0 17 7 21 15 3 8 12 15 20 15 7 0 16 -7 20 -15 3 -8 15
-15 26 -15 11 0 20 -4 20 -10 0 -5 5 -10 10 -10 6 0 10 47 10 120 0 100 3 120
15 120 13 0 15 22 15 135 0 83 4 135 10 135 6 0 10 43 10 109 0 63 4 112 10
116 6 3 10 46 10 95 0 49 5 92 10 95 6 3 10 48 10 101 0 56 4 94 10 94 6 0 10
33 10 80 0 58 4 81 14 87 11 6 15 31 17 95 1 48 6 85 10 82 5 -3 9 27 9 65 0
41 4 71 10 71 6 0 10 32 10 75 0 43 4 75 10 75 6 0 10 32 10 75 0 43 4 75 10
75 6 0 10 30 10 70 0 40 4 70 10 70 6 0 10 28 10 65 0 51 3 65 15 65 12 0 15
14 15 65 0 37 4 65 10 65 6 0 10 28 10 65 0 37 4 65 10 65 6 0 10 24 10 54 0
30 5 58 10 61 6 3 10 33 10 66 0 38 4 58 10 54 6 -4 10 17 10 54 0 46 4 61 14
61 10 0 16 17 20 58 13 130 18 167 27 177 5 5 9 28 9 51 0 24 5 46 10 49 6 3
10 17 10 31 0 36 20 53 62 54 32 0 45 -8 106 -69z m9820 60 c9 -5 2 -8 -20 -9
-23 -1 -28 2 -18 8 18 12 22 12 38 1z m1422 -12 c11 -8 12 -12 2 -16 -6 -2
-10 -8 -8 -12 3 -4 -1 -8 -9 -8 -18 0 -20 13 -2 20 9 4 8 8 -3 16 -8 6 -10 11
-5 11 6 0 17 -5 25 -11z m-2305 -27 c-3 -3 -11 0 -18 7 -9 10 -8 11 6 5 10 -3
15 -9 12 -12z m2482 12 c-3 -3 -12 -4 -19 -1 -8 3 -5 6 6 6 11 1 17 -2 13 -5z
m48 -4 c3 -5 1 -10 -4 -10 -6 0 -11 5 -11 10 0 6 2 10 4 10 3 0 8 -4 11 -10z
m-1755 -7 c-14 -3 -28 -10 -32 -16 -4 -6 -10 -8 -15 -4 -11 12 18 27 47 25
l25 -1 -25 -4z m57 1 c-3 -3 -12 -4 -19 -1 -8 3 -5 6 6 6 11 1 17 -2 13 -5z
m-920 -23 c0 -11 -5 -18 -9 -15 -4 3 -5 11 -1 19 7 21 12 19 10 -4z m803 9 c0
-5 -17 -9 -37 -9 l-38 2 35 7 c19 4 36 8 38 9 1 0 2 -3 2 -9z m777 -12 c-3 -8
-6 -5 -6 6 -1 11 2 17 5 13 3 -3 4 -12 1 -19z m380 16 c-3 -3 -12 -4 -19 -1
-8 3 -5 6 6 6 11 1 17 -2 13 -5z m-1804 -11 c-7 -2 -19 -2 -25 0 -7 3 -2 5 12
5 14 0 19 -2 13 -5z m285 -18 c9 1 11 0 4 -2 -7 -3 -9 -10 -5 -16 4 -7 -1 -6
-10 2 -9 7 -17 19 -16 25 0 8 2 8 5 0 3 -7 13 -11 22 -9z m282 5 c0 -5 -12
-10 -27 -9 l-28 1 25 8 c14 4 26 8 28 9 1 1 2 -3 2 -9z m155 0 c8 -13 -5 -13
-25 0 -13 8 -13 10 2 10 9 0 20 -4 23 -10z m-617 -7 c-15 -2 -42 -2 -60 0 -18
2 -6 4 27 4 33 0 48 -2 33 -4z m78 -18 c0 -25 -19 -27 -39 -5 -10 12 -9 12 4
2 19 -14 33 -4 19 13 -7 8 -6 12 3 12 7 0 13 -10 13 -22z m311 19 c-3 -3 -12
-4 -19 -1 -8 3 -5 6 6 6 11 1 17 -2 13 -5z m1946 -9 c-3 -9 -8 -14 -10 -11 -3
3 -2 9 2 15 9 16 15 13 8 -4z m-2106 -17 c-3 -8 -6 -5 -6 6 -1 11 2 17 5 13 3
-3 4 -12 1 -19z m20 -10 c-3 -7 -5 -2 -5 12 0 14 2 19 5 13 2 -7 2 -19 0 -25z
m31 7 c-3 -3 -9 2 -12 12 -6 14 -5 15 5 6 7 -7 10 -15 7 -18z m943 5 c30 0 38
3 33 13 -5 8 -2 7 9 -2 13 -10 35 -12 87 -8 39 3 70 2 70 -3 0 -4 3 -17 6 -27
4 -12 3 -14 -3 -5 -5 7 -24 11 -44 9 -19 -2 -46 0 -61 4 -19 5 -28 3 -32 -8
-8 -21 4 -39 15 -22 6 10 9 10 9 2 0 -6 -5 -15 -11 -19 -14 -8 -31 16 -24 34
3 9 -4 11 -23 9 -15 -3 -26 -10 -24 -16 1 -7 -2 -10 -8 -6 -6 3 -8 11 -5 16 4
5 -1 9 -9 9 -9 0 -16 -6 -16 -12 0 -9 -4 -8 -10 2 -5 8 -9 24 -9 35 0 11 3 14
6 8 2 -8 22 -13 44 -13z m972 0 c-20 -24 -33 -26 -33 -6 0 9 -13 16 -32 19
-20 2 -11 4 24 5 57 2 58 2 41 -18z m-2083 0 c0 -5 -2 -10 -4 -10 -3 0 -8 5
-11 10 -3 6 -1 10 4 10 6 0 11 -4 11 -10z m193 -5 c-3 -9 -8 -14 -10 -11 -3 3
-2 9 2 15 9 16 15 13 8 -4z m280 8 c-7 -2 -21 -2 -30 0 -10 3 -4 5 12 5 17 0
24 -2 18 -5z m1528 -3 c21 0 39 -4 39 -8 0 -10 -97 1 -107 13 -5 4 0 5 10 2
10 -4 36 -7 58 -7z m159 -9 c0 -6 13 -11 29 -13 21 -2 26 -6 17 -14 -7 -7 -23
-7 -45 -1 -27 7 -32 11 -20 19 10 7 5 8 -18 4 -19 -3 -33 -1 -33 4 0 6 16 10
35 10 19 0 35 -4 35 -9z m111 -1 c1 -5 2 -15 3 -20 0 -6 7 -14 14 -19 11 -7
10 -9 -3 -15 -9 -3 -13 -11 -9 -17 4 -7 3 -9 -3 -6 -6 4 -9 20 -8 37 2 24 -1
30 -16 30 -11 0 -19 5 -19 10 0 6 9 10 20 10 11 0 21 -4 21 -10z m-2184 -6
c-3 -3 -12 -4 -19 -1 -8 3 -5 6 6 6 11 1 17 -2 13 -5z m-400 -10 c-3 -3 -12
-4 -19 -1 -8 3 -5 6 6 6 11 1 17 -2 13 -5z m93 -4 c0 -5 -4 -10 -10 -10 -5 0
-10 5 -10 10 0 6 5 10 10 10 6 0 10 -4 10 -10z m2178 -15 c-3 -3 -9 2 -12 12
-6 14 -5 15 5 6 7 -7 10 -15 7 -18z m-2271 -17 c-3 -8 -6 -5 -6 6 -1 11 2 17
5 13 3 -3 4 -12 1 -19z m730 16 c-3 -3 -12 -4 -19 -1 -8 3 -5 6 6 6 11 1 17
-2 13 -5z m1831 -26 c2 -12 -2 -15 -17 -11 -12 3 -21 12 -21 20 0 20 34 12 38
-9z m-1705 5 c-7 -2 -19 -2 -25 0 -7 3 -2 5 12 5 14 0 19 -2 13 -5z m-783 -25
c0 -6 -8 -4 -17 3 -15 12 -16 12 -10 -3 3 -10 2 -18 -3 -18 -11 0 -14 23 -4
33 8 8 34 -3 34 -15z m2378 15 c-10 -2 -28 -2 -40 0 -13 2 -5 4 17 4 22 1 32
-1 23 -4z m-1853 -12 c3 -5 1 -12 -5 -16 -5 -3 -10 1 -10 9 0 18 6 21 15 7z
m25 -6 c0 -8 -4 -15 -8 -15 -5 0 -9 7 -9 15 0 8 4 15 9 15 4 0 8 -7 8 -15z
m1830 -5 c0 -5 -7 -7 -15 -4 -8 4 -15 8 -15 10 0 2 7 4 15 4 8 0 15 -4 15 -10z
m-2359 -30 c21 0 24 -8 8 -30 -9 -12 -10 -12 -5 4 5 13 2 17 -9 12 -8 -3 -15
-4 -15 -2 0 3 -2 10 -3 18 -2 7 -2 10 0 6 3 -5 13 -8 24 -8z m58 -24 c-3 -3
-11 5 -18 17 -13 21 -12 21 5 5 10 -10 16 -20 13 -22z m2268 -8 c-3 -8 -6 -5
-6 6 -1 11 2 17 5 13 3 -3 4 -12 1 -19z m20 -10 c-3 -7 -5 -2 -5 12 0 14 2 19
5 13 2 -7 2 -19 0 -25z m63 -2 c0 -9 -7 -12 -20 -9 -11 3 -20 9 -20 14 0 5 9
9 20 9 11 0 20 -6 20 -14z m-2146 -4 c6 -11 -40 -9 -50 1 -4 4 4 7 19 7 14 0
28 -4 31 -8z m383 -18 c-6 -6 -47 9 -47 17 0 5 11 3 25 -3 14 -6 24 -13 22
-14z m-222 6 c5 -9 -33 -14 -52 -7 -3 1 -12 -11 -18 -27 -11 -26 -12 -27 -18
-7 -3 11 -1 19 4 15 5 -3 9 0 9 5 0 14 -27 14 -32 1 -4 -12 -64 -16 -96 -6
-33 11 -18 24 23 20 20 -1 46 1 58 6 30 12 114 12 122 0z m15 -24 c0 -3 -4 -8
-10 -11 -5 -3 -10 -1 -10 4 0 6 5 11 10 11 6 0 10 -2 10 -4z m2070 -16 c0 -5
-2 -10 -4 -10 -3 0 -8 5 -11 10 -3 6 -1 10 4 10 6 0 11 -4 11 -10z m-2210 -35
c-7 -9 -15 -13 -18 -10 -3 2 1 11 8 20 7 9 15 13 18 10 3 -2 -1 -11 -8 -20z
m140 15 c0 -5 -2 -10 -4 -10 -3 0 -8 5 -11 10 -3 6 -1 10 4 10 6 0 11 -4 11
-10z m-53 -32 c-3 -8 -6 -5 -6 6 -1 11 2 17 5 13 3 -3 4 -12 1 -19z m228 12
c4 -6 -1 -7 -11 -3 -13 5 -16 3 -11 -10 4 -11 2 -14 -9 -10 -17 6 -18 20 -1
26 19 8 25 8 32 -3z m1165 -14 c0 -3 -4 -8 -10 -11 -5 -3 -10 -1 -10 4 0 6 5
11 10 11 6 0 10 -2 10 -4z m464 -27 c2 -2 -17 -5 -42 -5 -38 -2 -42 -1 -17 5
32 8 52 8 59 0z m-441 -246 c-7 -2 -19 -2 -25 0 -7 3 -2 5 12 5 14 0 19 -2 13
-5z m713 -43 c0 -12 -4 -16 -9 -11 -5 5 -6 14 -3 20 10 15 12 14 12 -9z m-139
-42 c-3 -8 -6 -5 -6 6 -1 11 2 17 5 13 3 -3 4 -12 1 -19z m-2180 -443 c0 -8
-4 -12 -9 -9 -5 3 -6 10 -3 15 9 13 12 11 12 -6z m798 -1535 c3 -6 -1 -7 -9
-4 -18 7 -21 14 -7 14 6 0 13 -4 16 -10z m-25 -60 c0 -5 -5 -10 -11 -10 -5 0
-7 5 -4 10 3 6 8 10 11 10 2 0 4 -4 4 -10z m-513 -129 c0 -11 -5 -18 -9 -15
-4 3 -5 11 -1 19 7 21 12 19 10 -4z m430 -13 c-3 -8 -6 -5 -6 6 -1 11 2 17 5
13 3 -3 4 -12 1 -19z m-232 -348 c3 -5 1 -10 -4 -10 -6 0 -11 5 -11 10 0 6 2
10 4 10 3 0 8 -4 11 -10z m-1315 -867 c0 -234 -2 -283 -14 -290 -8 -4 -42 -6
-75 -5 l-61 4 0 294 0 294 54 0 c30 0 58 5 61 11 5 6 12 4 21 -8 11 -14 13
-77 14 -300z m-1640 226 l0 -69 -150 0 -150 0 0 -40 0 -40 129 0 129 0 4 -65
3 -65 -132 0 -133 0 0 -55 0 -55 150 0 150 0 0 -65 0 -65 -227 2 -228 3 -3
292 -2 293 217 2 c120 2 224 1 231 -1 8 -2 12 -25 12 -72z m-3980 -159 l0
-230 140 0 140 0 0 -65 0 -65 -205 0 -205 0 0 295 0 295 65 0 65 0 0 -230z
m920 -65 l0 -295 -60 0 c-34 0 -66 5 -73 11 -9 9 -11 72 -9 248 2 130 6 257 9
284 l5 47 64 0 64 0 0 -295z m665 285 c-3 -5 -1 -10 4 -10 6 0 11 -6 11 -13 0
-7 9 -19 20 -27 11 -8 20 -22 20 -32 0 -10 5 -18 10 -18 6 0 10 -5 10 -11 0
-14 25 -39 39 -39 6 0 11 -7 11 -16 0 -9 14 -29 30 -44 17 -15 30 -33 30 -39
0 -6 5 -11 10 -11 6 0 10 -9 10 -20 0 -11 4 -20 9 -20 5 0 16 -3 25 -6 12 -5
16 0 16 20 0 14 -4 26 -8 26 -4 0 -8 9 -9 20 -1 11 2 20 6 20 4 0 4 30 0 68
-4 37 -3 88 3 115 l10 47 64 0 64 0 0 -295 0 -295 -65 0 c-37 0 -65 4 -65 10
0 6 0 12 0 15 1 8 -27 35 -35 35 -10 0 -35 27 -35 38 0 5 -7 15 -15 22 -9 7
-13 15 -11 17 7 7 -46 59 -56 55 -4 -1 -8 7 -8 19 0 12 -13 34 -30 49 -16 15
-30 35 -30 44 0 9 -4 16 -10 16 -6 0 -10 -55 -10 -146 0 -175 -1 -176 -92
-172 l-63 3 -3 293 -2 292 75 0 c48 0 74 -4 70 -10z m1317 -2 c7 -7 27 -20 43
-28 17 -8 36 -20 43 -27 14 -14 16 -43 2 -43 -5 0 -10 -7 -10 -15 0 -8 -6 -15
-13 -15 -7 0 -19 -9 -27 -20 -15 -21 -50 -28 -50 -10 0 6 -11 10 -25 10 -14 0
-25 5 -25 10 0 6 -28 10 -65 10 -37 0 -65 -4 -65 -10 0 -5 -7 -10 -15 -10 -9
0 -27 -11 -40 -25 -22 -22 -25 -32 -25 -105 0 -94 24 -150 64 -150 9 0 16 -4
16 -10 0 -6 28 -10 65 -10 37 0 65 4 65 10 0 6 11 10 25 10 21 0 25 5 25 30
l0 30 -65 0 -65 0 0 70 0 70 130 0 130 0 0 -130 c0 -71 1 -133 1 -137 1 -5 -8
-12 -20 -18 -11 -5 -21 -13 -21 -17 0 -5 -7 -8 -15 -8 -8 0 -15 -6 -15 -12 0
-9 -4 -8 -10 2 -6 10 -10 11 -10 3 0 -7 -9 -13 -20 -13 -11 0 -20 -4 -20 -10
0 -6 -43 -10 -110 -10 -67 0 -110 4 -110 10 0 6 -17 10 -37 11 -31 0 -34 2
-18 9 19 8 19 9 -3 9 -24 1 -92 60 -92 79 0 5 -7 12 -15 16 -8 3 -15 17 -15
31 0 14 -4 25 -10 25 -6 0 -10 40 -10 100 0 60 4 100 10 100 6 0 10 14 10 30
0 20 5 30 15 30 8 0 15 7 15 15 0 8 5 15 10 15 6 0 10 7 10 16 0 9 9 18 20 21
11 3 20 9 20 14 0 5 7 9 15 9 8 0 15 5 15 11 0 5 4 8 9 5 4 -3 19 3 31 14 20
17 38 20 131 20 72 0 112 -4 121 -12z m1938 -4 c0 -8 4 -13 9 -9 5 3 21 -6 35
-20 14 -14 30 -25 36 -25 6 0 8 -4 5 -10 -3 -5 -1 -10 4 -10 6 0 11 -7 11 -15
0 -9 6 -12 15 -8 14 5 15 -6 13 -78 -2 -61 -6 -83 -15 -81 -7 1 -13 -7 -13
-18 0 -11 -4 -20 -10 -20 -5 0 -10 -6 -10 -14 0 -8 -9 -18 -20 -21 -11 -4 -20
-15 -20 -26 0 -11 -4 -17 -10 -14 -5 3 -10 1 -10 -4 0 -6 5 -11 10 -11 6 0 10
-8 10 -18 0 -9 11 -25 24 -36 14 -10 22 -24 19 -32 -5 -13 18 -44 34 -44 4 0
13 -10 19 -23 8 -18 6 -26 -10 -42 -10 -11 -16 -14 -12 -7 5 9 -10 12 -64 12
-73 0 -100 12 -100 44 0 9 -4 16 -10 16 -5 0 -10 7 -10 15 0 8 -6 12 -14 9
-10 -4 -12 2 -9 20 3 16 1 26 -6 26 -6 0 -11 6 -11 14 0 7 -10 16 -22 20 -32
8 -88 7 -87 -1 1 -5 1 -43 0 -85 l-1 -78 -65 0 c-55 0 -65 3 -65 18 -1 45 -2
464 -1 515 l1 57 175 0 c152 0 175 -2 175 -16z m1750 1 c0 -8 6 -15 13 -16 10
0 10 -2 0 -6 -16 -6 -17 -37 -3 -64 8 -14 7 -19 -2 -19 -9 0 -9 -3 2 -10 18
-12 30 -11 -162 -10 -139 1 -147 0 -153 -20 -3 -11 -3 -29 0 -41 6 -19 13 -20
130 -17 140 3 154 -3 132 -61 -8 -23 -9 -36 -1 -49 9 -13 8 -21 -2 -30 -8 -7
-14 -9 -14 -5 0 6 -180 9 -237 4 -15 -1 -18 -68 -4 -89 6 -10 40 -12 155 -9
l146 4 0 -48 c0 -27 4 -49 9 -49 5 0 4 -11 -2 -24 -7 -14 -17 -22 -26 -18 -10
4 -12 1 -6 -9 7 -11 6 -12 -6 -2 -9 7 -76 11 -207 11 -107 0 -195 2 -198 4 -2
3 -5 136 -7 296 l-2 292 223 0 c191 0 222 -2 222 -15z m-4856 -1941 c12 -5 16
-21 16 -75 0 -39 -4 -69 -10 -69 -5 0 -10 -7 -10 -15 0 -9 -9 -15 -25 -15 -21
0 -25 -5 -25 -30 0 -27 3 -30 31 -30 41 0 59 -21 59 -69 0 -23 5 -41 10 -41 9
0 14 15 11 33 -1 5 2 6 7 3 8 -5 42 27 42 40 0 15 32 34 59 34 17 0 31 5 31
10 0 18 65 11 87 -9 13 -13 25 -16 34 -10 19 12 119 11 119 -1 0 -5 9 -10 20
-10 18 0 20 -7 20 -55 0 -30 -4 -55 -10 -55 -6 0 -10 -40 -10 -100 0 -60 4
-100 10 -100 16 0 12 -119 -4 -136 -10 -9 -36 -14 -75 -14 -54 0 -61 2 -61 20
0 26 -21 26 -40 0 -11 -16 -26 -20 -67 -20 -29 0 -63 6 -75 12 -37 22 -58 42
-58 55 0 7 -7 13 -15 13 -9 0 -15 9 -15 25 0 14 -4 25 -10 25 -6 0 -10 35 -10
85 l0 85 -29 0 c-60 0 -61 -3 -61 -120 0 -87 3 -109 15 -114 8 -3 15 -15 15
-26 0 -11 -7 -20 -15 -20 -8 0 -15 -4 -15 -10 0 -14 -123 -13 -138 2 -8 8 -12
52 -12 134 0 130 -4 154 -26 154 -19 0 -20 156 -2 162 8 3 12 18 10 40 -2 20
1 39 7 43 6 3 11 24 11 46 0 21 5 39 10 39 6 0 10 7 10 16 0 8 5 12 10 9 6 -3
10 -1 10 4 0 6 7 11 15 11 8 0 15 7 15 15 0 9 9 15 25 15 14 0 25 5 25 10 0
11 59 14 84 4z m4187 -21 c10 -11 10 -14 2 -9 -7 4 -13 2 -13 -3 0 -6 5 -11
10 -11 6 0 10 -7 10 -15 0 -8 -4 -15 -10 -15 -6 0 -10 -37 -10 -90 0 -82 2
-90 19 -90 11 0 21 5 23 10 2 6 14 12 28 13 14 0 36 7 50 14 21 11 25 11 28
-2 2 -8 10 -15 18 -15 9 0 12 5 8 13 -4 6 5 -1 19 -16 15 -15 27 -32 27 -37 0
-4 4 -10 10 -12 7 -2 13 -234 10 -405 0 -22 -4 -23 -82 -22 -56 0 -76 3 -63 9
l20 9 -20 0 c-19 1 -20 7 -17 136 2 109 0 138 -12 150 -18 19 -26 19 -26 1 0
-8 -9 -17 -20 -21 -18 -6 -19 -15 -17 -148 l2 -142 -70 2 c-38 1 -74 2 -78 3
-5 0 -6 4 -3 9 4 5 2 11 -4 13 -10 3 -17 629 -6 646 3 5 19 8 35 7 17 -1 32 3
35 11 3 7 22 15 43 17 21 2 39 4 39 5 1 1 8 -6 15 -15z m-6271 -18 c0 -14 5
-25 10 -25 6 0 10 -13 10 -30 0 -16 5 -30 10 -30 6 0 10 -13 10 -30 0 -19 5
-29 13 -27 7 1 13 -10 15 -25 2 -16 8 -28 13 -28 5 0 9 -16 9 -35 0 -19 5 -35
10 -35 6 0 10 -9 10 -20 0 -11 3 -20 6 -20 11 0 34 29 34 44 0 9 5 16 10 16 6
0 10 16 10 35 0 24 5 35 15 35 8 0 15 9 15 20 0 11 4 20 8 20 4 0 9 15 10 33
2 17 7 33 12 35 6 2 10 12 10 23 0 10 5 19 10 19 6 0 10 7 10 15 0 8 5 15 11
15 5 0 7 5 4 10 -3 6 3 10 14 10 12 0 21 -7 21 -15 0 -10 10 -15 30 -15 20 0
30 5 30 15 0 9 9 15 25 15 16 0 25 -6 25 -15 0 -8 5 -15 10 -15 6 0 10 -9 10
-20 0 -11 -4 -20 -10 -20 -6 0 -10 -98 -10 -275 0 -189 3 -275 11 -275 13 0 8
-51 -8 -67 -17 -19 -150 -17 -169 1 -10 11 -14 41 -14 110 0 57 -4 96 -10 96
-5 0 -10 -16 -10 -35 0 -19 -4 -35 -10 -35 -5 0 -10 -16 -10 -35 0 -24 -5 -35
-15 -35 -9 0 -15 -10 -15 -26 0 -14 -6 -32 -14 -40 -16 -15 -71 -20 -61 -5 3
5 -2 16 -10 25 -9 8 -16 18 -15 21 2 39 -2 55 -15 55 -10 0 -15 10 -15 30 0
17 -4 30 -10 30 -5 0 -10 16 -10 35 0 19 -4 35 -10 35 -6 0 -10 -45 -10 -114
0 -95 -3 -115 -16 -120 -28 -11 -134 -7 -134 5 0 6 -7 9 -15 5 -13 -5 -15 35
-15 324 l0 330 45 0 c33 0 45 4 45 15 0 11 12 15 45 15 41 0 45 -2 45 -25z
m5080 10 c0 -8 7 -15 16 -15 25 0 49 -29 35 -43 -6 -6 -11 -33 -11 -59 0 -26
-4 -48 -10 -48 -5 0 -10 -20 -10 -44 0 -24 -4 -46 -10 -48 -5 -1 -10 -27 -11
-55 -2 -37 -6 -53 -16 -53 -9 0 -13 -13 -13 -39 0 -22 -4 -42 -8 -45 -5 -3
-10 -27 -11 -53 -2 -26 -3 -53 -4 -60 0 -7 -4 -10 -9 -7 -4 3 -8 -20 -8 -51 0
-35 -4 -54 -10 -50 -6 4 -10 -8 -10 -29 0 -33 -2 -36 -30 -36 -16 0 -41 5 -55
12 -22 10 -25 17 -25 64 0 29 5 56 10 59 6 3 10 24 10 46 0 21 5 39 10 39 6 0
10 25 10 56 0 34 4 53 10 49 6 -4 10 15 10 50 0 40 4 57 15 61 10 4 15 20 15
50 0 24 5 44 10 44 6 0 10 23 10 50 0 28 5 50 10 50 6 0 10 18 8 42 -1 26 3
43 10 46 7 2 12 10 12 18 0 8 10 14 25 14 16 0 25 -6 25 -15z m2052 -327 c1
-218 4 -316 12 -321 8 -6 7 -10 -2 -14 -6 -2 -10 -9 -6 -14 5 -8 -6 -11 -41
-11 -93 0 -111 3 -123 23 -8 12 -9 19 -5 16 14 -8 12 157 -1 165 -8 6 -8 8 0
8 8 0 12 55 13 185 1 117 -3 185 -9 185 -15 0 -13 90 3 91 6 0 40 0 75 -1 44
-1 62 2 62 11 0 10 3 10 11 2 8 -8 11 -109 11 -325z m-1625 308 c3 -2 4 -61 4
-130 -2 -107 1 -126 14 -126 10 0 15 -10 15 -30 0 -16 5 -30 10 -30 6 0 10
-13 10 -30 0 -29 0 -30 19 -11 23 23 31 76 37 238 l5 122 80 3 c44 2 84 2 89
0 6 -2 10 -65 10 -153 0 -93 4 -149 10 -149 6 0 10 -16 10 -35 0 -19 3 -35 6
-35 15 0 36 33 31 51 -4 13 2 27 14 37 17 15 19 31 19 149 l0 133 33 1 c50 1
132 -2 136 -6 8 -9 0 -290 -9 -293 -5 -2 -10 -11 -10 -20 0 -23 -25 -93 -36
-101 -5 -3 -10 -13 -12 -21 -2 -8 -8 -17 -13 -19 -6 -1 -2 -9 8 -17 17 -13 17
-14 1 -8 -14 5 -18 1 -18 -15 0 -12 -3 -21 -8 -21 -4 0 -8 -14 -9 -32 0 -18
-6 -34 -12 -36 -6 -2 -11 -15 -11 -28 0 -13 -4 -24 -10 -24 -5 0 -10 -7 -10
-15 0 -12 -14 -15 -65 -15 -37 0 -65 4 -65 10 0 6 -9 10 -19 10 -14 0 -18 5
-14 20 3 11 0 20 -6 20 -6 0 -11 14 -11 30 0 17 -6 33 -14 36 -8 3 -12 12 -10
19 3 7 2 15 -3 18 -5 3 -10 -6 -11 -21 -1 -15 -7 -29 -12 -30 -6 -2 -8 -7 -5
-11 8 -13 -12 -66 -24 -63 -6 1 -11 -7 -11 -18 0 -18 -7 -20 -61 -20 -63 0
-89 13 -89 45 0 9 -4 13 -10 10 -6 -4 -10 7 -10 24 0 17 -4 31 -10 31 -5 0
-10 14 -10 30 0 17 -4 30 -10 30 -5 0 -10 9 -10 19 0 10 -7 21 -15 25 -9 3
-15 18 -15 36 0 16 -4 30 -10 30 -5 0 -10 11 -10 25 0 14 -4 25 -8 25 -4 0 -9
15 -10 32 -2 18 -7 37 -12 42 -13 13 -13 263 0 268 15 5 151 0 157 -6z m2918
-99 c0 -59 3 -107 6 -107 13 0 18 -29 7 -36 -7 -4 -8 -3 -4 4 4 7 3 12 -3 12
-6 0 -9 -72 -8 -190 1 -104 6 -190 11 -190 5 0 4 -6 -2 -13 -8 -9 -8 -17 0
-27 8 -12 9 -12 4 3 -4 11 -2 16 5 12 13 -8 6 -30 -9 -31 -7 -1 -15 -3 -19 -4
-5 -1 -24 -1 -43 -1 -27 1 -31 -1 -20 -8 13 -9 13 -11 -3 -11 -17 0 -24 3 -86
34 -33 16 -33 16 -28 -5 4 -16 3 -19 -5 -11 -13 13 -3 43 13 40 14 -4 21 110
7 118 -7 4 -6 9 2 14 12 8 21 76 12 98 -4 11 -6 11 -13 1 -5 -8 -3 -17 4 -21
8 -5 6 -8 -7 -8 -15 0 -16 -3 -6 -15 16 -19 5 -34 -12 -17 -14 14 -32 16 -24
3 3 -5 -1 -11 -9 -15 -24 -9 -17 -25 8 -19 12 3 18 1 12 -4 -13 -10 -14 -34
-1 -30 13 3 26 -38 20 -69 -3 -15 -14 -34 -25 -42 -10 -7 -19 -20 -19 -28 0
-8 -4 -14 -10 -14 -5 0 -7 8 -4 18 5 15 4 15 -5 1 -8 -13 -28 -15 -107 -13
-66 2 -100 7 -105 16 -5 7 -9 9 -9 4 0 -5 -9 -1 -19 8 -11 10 -25 15 -32 10
-9 -5 -10 -2 -6 9 3 8 0 27 -6 42 -10 20 -17 24 -37 20 -17 -4 -21 -3 -11 4 8
5 11 16 8 25 -10 25 -35 -2 -32 -32 1 -13 -4 -26 -11 -29 -8 -3 -14 -11 -14
-19 0 -13 -12 -18 -32 -15 -5 0 -8 -5 -8 -13 0 -17 -51 -37 -80 -31 -11 2 -20
0 -20 -5 0 -5 -15 -1 -32 9 -18 10 -32 24 -31 30 2 6 -2 11 -7 11 -6 0 -10 7
-10 15 0 8 -4 15 -9 15 -11 0 -22 -27 -13 -33 4 -2 1 -2 -7 0 -8 2 -25 -7 -38
-19 -21 -20 -34 -22 -119 -22 -58 0 -99 5 -106 12 -7 7 -23 12 -38 13 -14 0
-20 3 -13 6 10 3 10 7 0 18 -7 7 -14 12 -17 10 -3 -2 -6 9 -7 23 0 15 -6 28
-12 30 -6 2 -11 16 -11 32 0 16 -7 36 -17 45 -21 22 -19 95 3 112 12 9 15 21
11 42 -4 21 -1 35 13 51 11 12 22 32 26 43 8 25 28 47 43 47 6 0 11 6 12 13 0
9 2 9 6 0 4 -10 7 -10 17 0 15 14 160 11 150 -4 -3 -5 -2 -8 3 -7 18 5 53 -15
53 -30 1 -21 34 -62 50 -62 6 0 8 -4 5 -10 -3 -5 -1 -10 4 -10 10 0 15 14 12
33 0 4 4 7 10 7 6 0 9 7 6 14 -4 10 -1 13 9 9 8 -3 14 1 14 11 0 20 39 56 61
56 10 0 22 6 26 13 12 18 73 16 73 -3 0 -13 1 -13 10 0 9 13 10 13 11 0 1 -8
1 -19 0 -23 -1 -5 3 -6 8 -3 5 3 15 -2 22 -11 10 -12 10 -15 1 -9 -9 5 -11 1
-8 -16 3 -13 5 -26 5 -30 1 -3 8 -8 17 -10 13 -2 12 -7 -6 -25 -19 -21 -18
-28 3 -24 5 1 5 -3 2 -9 -5 -8 -13 -6 -24 4 -25 22 -28 21 -36 -20 -5 -28 -2
-39 12 -50 10 -7 14 -14 10 -14 -5 0 -2 -7 6 -15 9 -8 14 -26 13 -39 -2 -18 2
-24 14 -23 17 1 19 29 6 90 -2 9 0 17 5 17 5 0 9 18 9 41 0 32 3 40 15 35 10
-4 15 1 15 14 0 11 5 20 10 20 6 0 10 11 10 25 0 14 5 25 11 25 6 0 8 7 5 16
-3 8 -2 13 3 9 12 -7 42 5 36 15 -2 4 16 6 40 5 26 0 41 3 38 9 -4 5 1 7 10 3
10 -4 17 0 20 11 3 12 5 10 6 -6 0 -13 5 -20 11 -17 5 3 19 1 31 -6 15 -8 19
-8 15 0 -17 27 15 8 35 -21 13 -18 27 -34 31 -36 4 -2 8 -15 8 -28 0 -14 6
-24 14 -24 8 0 16 -5 18 -12 2 -6 12 -9 21 -5 12 4 17 18 17 47 0 22 -4 40
-10 40 -14 0 -12 64 2 78 9 9 9 12 0 12 -17 0 -16 117 1 123 6 2 46 4 87 3
l74 -2 1 -107z m-5385 53 c0 -5 16 -10 35 -10 l35 0 0 -65 0 -65 39 0 c22 0
41 -4 43 -10 2 -5 2 -46 0 -90 l-4 -80 -39 0 -39 0 0 -65 0 -65 55 0 55 0 0
-55 c0 -38 -4 -55 -13 -55 -7 0 -19 -9 -27 -20 -8 -11 -20 -20 -27 -20 -7 0
-13 -4 -13 -10 0 -6 -30 -10 -70 -10 -40 0 -70 4 -70 10 0 6 -7 10 -16 10 -8
0 -12 5 -9 10 3 6 -1 10 -9 10 -14 0 -16 19 -16 130 0 123 -1 130 -20 130 -17
0 -20 7 -20 40 0 22 -4 40 -10 40 -5 0 -9 -3 -9 -7 1 -5 1 -18 0 -30 -1 -21
-6 -23 -62 -23 -58 0 -60 -1 -70 -30 -6 -16 -15 -27 -20 -24 -5 3 -9 -2 -9
-10 0 -9 6 -16 13 -16 7 0 13 -9 14 -20 1 -11 8 -27 17 -35 16 -17 66 -20 66
-5 0 6 11 10 25 10 21 0 25 -5 25 -30 0 -16 5 -30 10 -30 6 0 10 -25 10 -55 0
-48 -2 -55 -20 -55 -11 0 -20 -4 -20 -10 0 -6 -33 -10 -80 -10 -47 0 -80 4
-80 10 0 6 -7 10 -15 10 -23 0 -65 46 -65 70 0 11 -7 20 -15 20 -8 0 -15 9
-15 20 0 11 -4 20 -10 20 -6 0 -10 40 -10 100 0 60 4 100 10 100 6 0 10 9 10
20 0 11 7 20 15 20 8 0 15 9 15 20 0 11 5 20 10 20 6 0 10 5 10 11 0 16 26 39
44 39 9 0 16 5 16 10 0 7 30 10 80 9 44 -1 80 -6 80 -10 0 -5 7 -9 15 -9 8 0
15 -4 15 -10 0 -5 11 -10 25 -10 25 0 25 1 25 85 l0 85 45 0 c25 0 45 -4 45
-10z m6045 -29 c3 -5 1 -12 -5 -16 -5 -3 -10 1 -10 9 0 18 6 21 15 7z m-245
-11 c0 -5 -2 -10 -4 -10 -3 0 -8 5 -11 10 -3 6 -1 10 4 10 6 0 11 -4 11 -10z
m190 0 c0 -5 -4 -10 -10 -10 -5 0 -10 5 -10 10 0 6 5 10 10 10 6 0 10 -4 10
-10z m-36 -44 c-3 -9 -12 -12 -22 -9 -15 6 -9 11 25 22 1 1 0 -5 -3 -13z
m-377 -18 c-3 -8 -6 -5 -6 6 -1 11 2 17 5 13 3 -3 4 -12 1 -19z m256 15 c-7
-2 -19 -2 -25 0 -7 3 -2 5 12 5 14 0 19 -2 13 -5z m-189 -14 c-4 -8 1 -9 16
-4 17 6 21 4 15 -6 -5 -8 2 -5 15 6 l23 20 -12 -23 c-7 -13 -10 -26 -7 -30 3
-3 6 0 6 6 0 7 5 12 11 12 5 0 7 -4 4 -10 -4 -6 1 -7 11 -3 13 5 16 3 11 -10
-4 -11 -1 -17 8 -17 8 0 15 -5 15 -11 0 -16 41 -71 48 -64 11 11 8 44 -5 49
-7 3 -13 1 -13 -5 0 -6 -5 -7 -11 -4 -6 5 -2 13 13 23 13 9 26 21 30 26 4 6
25 10 48 10 38 -1 54 9 28 19 -7 2 -1 4 13 3 18 -1 25 -5 21 -14 -4 -12 -1
-12 19 0 13 7 27 17 30 22 4 4 9 3 13 -2 4 -6 0 -14 -8 -19 -12 -7 -12 -10 0
-21 12 -11 14 -10 14 3 0 9 5 13 10 10 6 -3 10 -2 10 3 0 5 9 12 20 15 11 3
20 1 20 -3 0 -5 12 -10 28 -12 l27 -3 0 -102 c0 -93 -1 -103 -18 -103 -9 0
-20 -6 -23 -14 -3 -8 -15 -16 -27 -20 -20 -5 -21 -4 -4 8 23 18 22 29 -3 16
-11 -6 -20 -18 -20 -28 0 -12 -3 -14 -8 -4 -7 11 -7 -49 1 -145 2 -18 -2 -35
-8 -37 -5 -2 1 -5 15 -6 23 -1 23 -2 5 -10 -11 -5 -16 -9 -12 -9 12 -1 -15
-26 -38 -35 -33 -13 -86 -16 -79 -4 5 7 -1 9 -15 5 -22 -5 -52 17 -50 37 0 5
-5 13 -13 17 -10 7 -10 9 2 9 12 0 14 15 12 85 -3 85 -6 90 -36 79 -12 -5 -13
-10 -6 -25 9 -15 8 -17 -6 -12 -14 5 -15 3 -4 -16 6 -13 9 -25 6 -28 -3 -3 2
-12 10 -20 17 -18 16 -83 -3 -83 -6 0 -16 -8 -22 -17 -5 -10 -12 -17 -15 -15
-13 5 -27 1 -22 -7 3 -5 -43 -8 -106 -7 -76 1 -113 6 -116 14 -2 7 -10 12 -18
12 -9 0 -13 3 -11 8 3 4 -2 13 -9 20 -13 12 -14 9 -10 -15 4 -17 1 -14 -7 10
-7 21 -15 35 -18 32 -3 -3 -14 5 -25 17 l-19 23 21 -18 c19 -16 22 -16 27 -3
4 9 1 15 -6 13 -8 -1 -11 10 -11 31 2 27 0 30 -10 17 -9 -12 -11 2 -11 65 -1
44 3 80 7 80 5 0 5 8 0 18 -11 21 -4 45 10 36 6 -4 8 -2 4 4 -3 6 1 18 10 26
8 9 11 16 5 16 -5 0 -16 -7 -25 -15 -13 -14 -15 -13 -13 4 0 11 4 18 8 15 12
-7 38 7 34 19 -3 7 13 25 35 40 22 16 40 31 40 35 0 4 19 6 41 4 27 -3 39 -1
35 6 -4 6 5 12 21 15 16 2 29 5 31 6 2 0 0 -4 -4 -10z m453 -15 c-3 -3 -12 -4
-19 -1 -8 3 -5 6 6 6 11 1 17 -2 13 -5z m-8437 -14 c0 -5 9 -10 20 -10 11 0
20 -4 20 -10 0 -5 7 -10 15 -10 8 0 15 5 15 10 0 6 18 10 40 10 22 0 40 -4 40
-10 0 -5 11 -10 25 -10 l25 0 0 -220 c0 -189 -2 -220 -15 -220 -8 0 -15 -4
-15 -10 0 -6 -28 -10 -65 -10 -58 0 -65 2 -65 20 0 26 -12 26 -30 0 -12 -16
-26 -20 -72 -20 -32 0 -58 4 -58 10 0 6 -7 10 -15 10 -8 0 -15 5 -15 10 0 6
-5 10 -11 10 -20 0 -59 54 -59 83 0 15 -4 27 -10 27 -6 0 -10 40 -10 100 0 60
4 100 10 100 6 0 10 9 10 20 0 11 5 20 10 20 6 0 10 9 10 20 0 11 5 20 10 20
6 0 10 7 10 15 0 8 7 15 15 15 8 0 15 4 15 8 0 4 12 9 28 10 15 1 29 7 30 12
5 13 92 13 92 0z m550 0 c0 -5 7 -10 16 -10 18 0 44 -23 44 -39 0 -6 5 -11 10
-11 6 0 10 -9 10 -20 0 -11 7 -20 15 -20 13 0 15 -27 15 -185 0 -158 -2 -185
-15 -185 -8 0 -15 -4 -15 -10 0 -16 -119 -12 -136 4 -11 11 -14 47 -14 160 0
126 -2 146 -16 146 -37 0 -44 -24 -44 -154 0 -154 -7 -166 -96 -166 -86 0 -84
-4 -84 240 0 170 3 214 14 226 10 9 36 14 75 14 58 0 61 -1 61 -25 0 -16 6
-25 15 -25 8 0 15 5 15 11 0 15 22 33 45 37 11 2 24 8 30 13 12 12 55 12 55
-1z m2590 -12 c15 -19 21 -21 31 -10 18 17 84 15 99 -2 6 -8 10 -32 8 -52 -2
-23 2 -39 10 -42 7 -2 12 5 12 17 0 12 6 21 15 21 8 0 15 4 15 9 0 15 61 72
70 66 6 -4 10 -1 10 5 0 20 141 10 173 -12 15 -11 27 -24 27 -29 0 -5 9 -19
20 -31 11 -12 20 -32 20 -45 0 -14 6 -23 15 -23 13 0 15 -11 13 -62 -3 -57 -5
-63 -25 -66 -13 -2 -23 -9 -23 -17 0 -7 -6 -16 -12 -19 -10 -5 -10 -7 0 -12 6
-3 12 -14 12 -25 0 -10 5 -19 10 -19 15 0 12 -80 -4 -96 -8 -8 -22 -14 -30
-14 -9 0 -16 -4 -16 -10 0 -6 -37 -10 -90 -10 -53 0 -90 4 -90 10 0 6 -7 10
-16 10 -9 0 -29 14 -44 30 -15 17 -33 30 -39 30 -6 0 -11 14 -11 31 0 17 -4
28 -10 24 -6 -4 -10 23 -10 74 0 44 -4 83 -10 86 -5 3 -10 1 -10 -4 0 -6 -18
-11 -41 -11 -64 0 -69 -11 -69 -154 l0 -126 -61 0 c-39 0 -65 5 -75 14 -11 12
-14 53 -14 205 0 121 -4 191 -10 191 -15 0 -12 39 4 56 9 8 35 14 65 14 28 0
51 5 51 10 0 16 10 12 30 -12z m700 2 c15 -21 40 -27 40 -10 0 6 23 10 50 10
l50 0 0 -45 c0 -25 -4 -45 -10 -45 -5 0 -10 -9 -10 -20 0 -11 4 -20 9 -20 14
0 9 -42 -5 -57 -7 -7 -29 -13 -49 -13 -60 0 -65 -12 -65 -154 l0 -126 -61 0
c-39 0 -65 5 -75 14 -11 12 -14 53 -14 200 0 112 -4 187 -10 191 -15 9 -12 44
4 61 8 8 34 14 60 14 25 0 48 5 51 10 9 15 19 12 35 -10z m2270 11 c0 -4 10
-8 23 -7 14 1 21 -4 19 -13 -2 -8 3 -11 12 -8 9 4 15 3 15 -1 -4 -25 3 -34 21
-29 11 3 18 1 15 -3 -12 -20 7 -60 29 -60 12 0 16 -3 10 -8 -6 -4 -11 -49 -11
-115 0 -94 -3 -110 -19 -122 -11 -8 -14 -15 -8 -15 6 0 11 -7 11 -15 0 -14 -9
-19 -23 -12 -10 4 -25 -33 -18 -45 4 -7 3 -8 -4 -4 -7 4 -12 2 -12 -3 0 -6 -3
-10 -7 -10 -22 4 -43 -2 -43 -12 0 -5 5 -7 12 -3 7 4 8 3 4 -5 -4 -6 -12 -8
-18 -5 -6 4 -42 6 -80 5 -40 -1 -68 2 -68 8 0 5 -8 8 -19 6 -21 -4 -74 41 -66
55 3 6 -1 7 -9 4 -11 -4 -16 0 -16 14 0 11 -4 22 -9 24 -8 3 -23 98 -22 138 2
51 13 115 21 118 6 2 10 11 10 20 0 10 11 26 25 36 14 10 25 26 25 35 0 10 9
17 22 18 13 1 24 7 26 13 4 12 152 14 152 1z m2008 -3 c15 -15 16 -28 2 -28
-5 0 -10 6 -10 14 0 8 -6 17 -12 19 -7 3 -8 6 -2 6 5 1 15 -4 22 -11z m-7267
-30 c0 -13 0 -80 -1 -150 -1 -113 1 -128 17 -136 10 -5 25 -7 33 -4 36 13 40
29 40 161 0 86 4 131 11 131 5 0 7 5 4 10 -4 6 20 10 64 10 41 0 71 -4 71 -10
0 -5 7 -10 15 -10 13 0 15 -31 15 -220 0 -189 -2 -220 -15 -220 -8 0 -15 -4
-15 -10 0 -6 -27 -10 -61 -10 -51 0 -65 4 -82 23 -13 15 -21 18 -24 10 -3 -7
-13 -13 -24 -13 -10 0 -19 -4 -19 -10 0 -5 -20 -10 -45 -10 -25 0 -45 5 -45
10 0 6 -9 10 -21 10 -24 0 -49 22 -49 44 0 9 -4 16 -10 16 -16 0 -13 367 3
385 8 9 33 14 75 15 58 0 62 -2 63 -22z m1840 10 c0 -7 0 -70 -1 -141 -1 -134
5 -157 47 -157 38 0 43 19 43 157 0 87 4 133 11 133 5 0 7 5 4 10 -5 7 19 10
72 8 l78 -3 3 -223 c3 -259 5 -252 -84 -252 -46 0 -60 4 -77 23 -13 15 -21 18
-24 10 -3 -7 -16 -13 -29 -13 -13 0 -24 -4 -24 -10 0 -5 -18 -10 -40 -10 -22
0 -40 5 -40 10 0 6 -10 10 -21 10 -12 0 -32 12 -45 28 -23 26 -24 32 -24 215
0 136 3 192 13 202 16 19 137 21 138 3z m5073 -14 c3 -8 2 -12 -4 -9 -6 3 -10
10 -10 16 0 14 7 11 14 -7z m-600 -403 c-2 -3 -12 3 -22 13 -16 17 -16 18 5 5
12 -7 20 -15 17 -18z m-58 -19 c-17 -16 -18 -16 -5 5 7 12 15 20 18 17 3 -2
-3 -12 -13 -22z m1029 -11 c3 -5 2 -12 -3 -15 -5 -3 -9 1 -9 9 0 17 3 19 12 6z
m-368 -23 c-3 -8 -6 -5 -6 6 -1 11 2 17 5 13 3 -3 4 -12 1 -19z m-1197 2 c0
-5 -2 -10 -4 -10 -3 0 -8 5 -11 10 -3 6 -1 10 4 10 6 0 11 -4 11 -10z m470
-40 c0 -5 -4 -10 -10 -10 -5 0 -10 5 -10 10 0 6 5 10 10 10 6 0 10 -4 10 -10z
m1321 -19 c-7 -5 -17 -15 -22 -22 -6 -10 -9 -8 -9 9 0 16 6 22 23 22 16 0 18
-3 8 -9z"/>
<path d="M14670 6610 c0 -14 25 -18 37 -5 9 10 6 13 -13 13 -13 0 -24 -4 -24
-8z"/>
<path d="M14578 6593 c7 -3 16 -2 19 1 4 3 -2 6 -13 5 -11 0 -14 -3 -6 -6z"/>
<path d="M13710 6552 c0 -4 9 -13 20 -20 17 -10 20 -10 20 4 0 8 -4 12 -10 9
-5 -3 -10 -1 -10 4 0 6 -4 11 -10 11 -5 0 -10 -3 -10 -8z"/>
<path d="M14055 6530 c-3 -5 1 -10 9 -10 9 0 16 -4 16 -9 0 -6 9 -8 21 -6 17
4 19 2 9 -10 -9 -11 -9 -15 -1 -15 6 0 11 4 11 9 0 5 7 17 16 25 14 14 12 15
-15 12 -17 -2 -28 1 -25 5 3 5 -4 9 -15 9 -11 0 -23 -4 -26 -10z"/>
<path d="M14295 6530 c3 -5 11 -10 16 -10 6 0 7 5 4 10 -3 6 -11 10 -16 10 -6
0 -7 -4 -4 -10z"/>
<path d="M13553 6341 c5 -23 3 -29 -7 -25 -8 3 -16 -3 -18 -14 -3 -11 0 -19 7
-19 7 0 11 5 9 11 -3 7 11 10 42 7 37 -2 45 0 39 10 -6 11 -5 12 6 2 19 -19
26 -16 25 10 -1 12 -7 21 -14 20 -6 -2 -9 4 -6 12 4 8 1 15 -5 15 -6 0 -11 -5
-11 -11 0 -6 -5 -7 -12 -2 -7 4 -24 9 -37 11 -21 3 -23 0 -18 -27z m41 7 c-3
-4 2 -8 12 -8 14 0 15 -2 3 -17 -13 -15 -14 -15 -17 1 -2 9 -7 14 -11 12 -4
-3 -8 1 -8 8 0 7 6 13 13 13 7 0 11 -4 8 -9z"/>
<path d="M14325 6270 c3 -5 8 -10 11 -10 2 0 4 5 4 10 0 6 -5 10 -11 10 -5 0
-7 -4 -4 -10z"/>
<path d="M14278 6253 c6 -2 18 -2 25 0 6 3 1 5 -13 5 -14 0 -19 -2 -12 -5z"/>
<path d="M14273 6233 c9 -2 25 -2 35 0 9 3 1 5 -18 5 -19 0 -27 -2 -17 -5z"/>
<path d="M12980 5199 c0 -5 -4 -8 -9 -5 -12 8 -51 -28 -51 -47 0 -9 -5 -19
-10 -22 -6 -4 -8 -10 -5 -15 3 -5 -3 -17 -14 -27 -13 -12 -21 -35 -23 -60 -2
-23 -6 -39 -10 -36 -5 2 -8 -9 -8 -26 0 -16 -4 -32 -8 -35 -4 -2 -9 -22 -10
-42 -2 -21 -7 -41 -11 -44 -12 -7 -20 -100 -27 -314 -6 -179 -4 -195 29 -196
11 0 8 35 -4 47 -8 8 -7 13 2 18 8 5 10 4 5 -3 -4 -7 -2 -12 4 -12 7 0 14 9
17 20 3 11 10 20 15 20 6 0 8 11 6 25 -4 18 -1 25 11 25 16 0 41 41 41 67 0 7
5 13 10 13 6 0 10 11 10 24 0 14 5 28 10 31 6 3 10 17 10 31 0 13 4 24 8 24
13 0 11 34 -2 42 -6 5 -1 8 12 8 18 0 22 5 22 34 0 22 6 36 16 40 14 5 14 9 3
23 -8 9 -9 14 -3 10 12 -7 15 2 35 113 13 72 18 210 7 210 -4 0 -8 9 -8 20 0
15 -9 22 -30 26 -16 4 -27 10 -24 15 3 5 0 9 -5 9 -6 0 -11 -5 -11 -11z"/>
<path d="M6220 5110 c0 -5 -8 -10 -18 -10 -10 0 -24 -9 -32 -20 -8 -11 -20
-20 -27 -20 -7 0 -13 -9 -13 -20 0 -12 -11 -32 -24 -45 -14 -13 -28 -34 -31
-46 -8 -23 -12 -29 -57 -80 -16 -17 -25 -35 -22 -40 3 -5 1 -9 -4 -9 -4 0 -14
-16 -22 -35 -8 -19 -17 -35 -22 -35 -4 0 -8 -9 -8 -20 0 -11 -4 -20 -10 -20
-5 0 -10 -6 -10 -14 0 -8 -7 -16 -15 -20 -8 -3 -15 -15 -15 -26 0 -12 -4 -18
-10 -15 -6 4 -9 3 -8 -2 3 -8 -17 -65 -33 -95 -5 -10 -9 -25 -9 -33 0 -8 -4
-15 -10 -15 -5 0 -10 -11 -10 -25 0 -16 -6 -25 -15 -25 -10 0 -15 -10 -15 -30
0 -16 -4 -30 -10 -30 -5 0 -10 -11 -10 -24 0 -14 -4 -28 -10 -31 -5 -3 -10
-17 -10 -31 0 -13 -6 -24 -12 -24 -9 0 -8 -4 2 -10 10 -6 11 -10 3 -10 -8 0
-13 -14 -13 -34 0 -19 -4 -38 -10 -41 -5 -3 -10 -24 -10 -46 0 -28 -4 -39 -15
-39 -12 0 -15 -14 -15 -65 0 -37 -4 -65 -10 -65 -14 0 -12 -91 3 -123 6 -15
18 -27 25 -27 6 0 12 -4 12 -10 0 -20 33 -9 61 21 16 17 29 28 29 23 0 -4 9 2
20 14 11 12 20 26 20 32 0 5 5 10 10 10 6 0 10 8 10 18 0 10 9 24 20 32 11 8
20 24 21 35 0 11 3 14 6 7 7 -17 23 -5 23 19 0 10 5 19 10 19 6 0 10 8 10 18
0 10 9 24 20 32 11 8 20 23 20 33 0 10 9 27 20 39 11 12 20 28 20 35 0 7 7 13
15 13 9 0 15 9 15 25 0 14 5 25 10 25 6 0 10 9 10 20 0 11 5 20 10 20 6 0 10
9 10 20 0 11 5 20 10 20 6 0 10 9 10 19 0 11 5 23 10 26 6 3 10 15 10 26 0 10
7 19 15 19 9 0 15 9 15 25 0 14 4 25 8 25 5 0 15 23 22 50 7 28 17 50 22 50 4
0 8 16 8 35 0 19 5 35 10 35 6 0 10 16 10 35 0 23 5 35 14 35 14 0 22 30 32
123 3 26 10 47 15 47 5 0 9 43 9 96 0 93 -9 124 -38 124 -6 0 -13 6 -15 13 -4
10 -6 10 -6 0 -1 -7 -6 -13 -12 -13 -5 0 -7 5 -4 10 3 6 1 10 -4 10 -6 0 -11
-4 -11 -10z"/>
<path d="M12790 4319 c0 -5 5 -7 10 -4 6 3 10 8 10 11 0 2 -4 4 -10 4 -5 0
-10 -5 -10 -11z"/>
<path d="M8410 4190 c0 -16 5 -30 10 -30 6 0 10 14 10 30 0 17 -4 30 -10 30
-5 0 -10 -13 -10 -30z"/>
<path d="M3625 2308 c8 -508 15 -698 25 -698 6 0 10 -63 10 -155 0 -97 4 -155
10 -155 6 0 10 -26 10 -59 0 -43 4 -60 15 -65 9 -3 15 -19 15 -41 0 -19 5 -35
10 -35 6 0 10 -9 10 -20 0 -29 44 -70 75 -70 30 0 55 21 55 44 0 9 5 16 10 16
6 0 10 11 10 25 0 14 5 25 10 25 6 0 10 14 10 30 0 17 5 30 10 30 6 0 10 18
10 41 0 23 7 47 15 55 13 13 15 56 15 265 0 213 -2 250 -15 255 -11 5 -15 21
-15 59 0 30 -4 57 -10 60 -5 3 -10 22 -10 41 0 19 -4 34 -10 34 -5 0 -10 20
-10 45 0 25 -4 45 -10 45 -5 0 -10 16 -10 35 0 19 -4 35 -10 35 -5 0 -10 14
-10 30 0 20 -5 30 -15 30 -9 0 -15 9 -15 25 0 14 -4 25 -10 25 -5 0 -10 11
-10 24 0 13 -5 26 -10 28 -6 2 -12 13 -13 26 0 12 -5 22 -9 22 -4 0 -8 11 -8
25 0 14 -4 25 -10 25 -5 0 -10 7 -10 16 0 8 -7 22 -15 30 -8 8 -12 21 -9 29 4
9 0 15 -10 15 -9 0 -16 8 -16 21 0 11 -4 17 -10 14 -5 -3 -10 1 -10 9 0 9 -4
16 -10 16 -5 0 -10 11 -10 25 0 14 -5 25 -10 25 -7 0 -9 -99 -5 -302z"/>
<path d="M9155 2550 c3 -5 8 -10 11 -10 2 0 4 5 4 10 0 6 -5 10 -11 10 -5 0
-7 -4 -4 -10z"/>
<path d="M11182 2698 c-16 -16 -16 -72 0 -62 7 5 8 3 2 -7 -11 -18 -13 -60 -2
-53 4 3 8 0 8 -5 0 -7 23 -11 55 -11 30 0 55 5 55 10 0 6 8 10 18 10 20 0 42
42 42 82 0 21 -5 28 -20 28 -11 0 -20 5 -20 10 0 14 -123 13 -138 -2z"/>
<path d="M8493 485 c-7 -8 -13 -36 -13 -62 0 -42 3 -49 27 -60 15 -7 31 -13
36 -13 16 0 37 28 37 49 0 12 6 21 15 21 8 0 15 5 15 10 0 6 -7 10 -15 10 -8
0 -15 7 -15 16 0 38 -61 59 -87 29z"/>
<path d="M13753 525 c0 -8 4 -15 9 -15 4 0 8 4 8 9 0 6 -4 12 -8 15 -5 3 -9
-1 -9 -9z"/>
<path d="M14438 533 c6 -2 12 -9 12 -14 0 -6 -4 -7 -10 -4 -15 9 -12 -11 3
-23 10 -9 13 -4 15 19 2 22 -2 29 -15 28 -11 0 -13 -3 -5 -6z"/>
<path d="M13539 526 c-4 -4 -5 -46 -1 -46 3 0 11 8 18 18 13 15 13 15 8 0 -4
-12 0 -16 14 -15 19 1 19 2 4 22 -13 17 -36 28 -43 21z"/>
<path d="M14217 510 c-3 -11 0 -23 5 -27 7 -3 8 -1 4 5 -4 7 -2 12 3 12 6 0
11 -5 11 -11 0 -5 4 -8 9 -5 13 8 1 46 -14 46 -7 0 -15 -9 -18 -20z"/>
<path d="M13766 447 c2 -22 0 -36 -5 -32 -6 3 -8 -5 -5 -19 2 -14 0 -27 -6
-31 -5 -3 -7 0 -4 8 3 8 1 18 -5 22 -6 3 -11 -1 -11 -9 0 -9 -7 -16 -15 -16
-8 0 -15 -4 -15 -10 0 -5 7 -10 15 -10 8 0 15 -9 15 -20 0 -11 5 -20 10 -20 6
0 10 -7 10 -16 0 -8 5 -12 10 -9 6 4 8 10 5 15 -6 10 23 22 36 14 5 -3 9 0 9
5 0 6 9 11 19 11 11 0 23 5 26 10 3 6 1 10 -4 10 -6 0 -11 9 -11 20 0 29 -35
61 -50 47 -10 -9 -11 -9 -6 0 3 6 0 14 -6 16 -10 4 -10 6 0 6 6 1 12 8 12 17
0 8 -4 13 -9 10 -5 -4 -12 0 -14 6 -3 7 -3 -4 -1 -25z"/>
<path d="M13550 360 c0 -4 6 -12 13 -18 15 -13 79 -13 71 0 -3 4 0 8 5 8 6 0
11 4 11 8 0 4 -22 8 -50 9 -27 0 -50 -3 -50 -7z"/>
<path d="M14220 359 c0 -5 4 -8 9 -5 5 4 11 1 13 -4 2 -6 21 -13 42 -17 37 -6
38 -5 27 16 -7 11 -19 21 -27 21 -8 0 -12 -4 -9 -10 3 -5 -1 -10 -9 -10 -9 0
-16 5 -16 10 0 6 -7 10 -15 10 -8 0 -15 -5 -15 -11z"/>
<path d="M14320 360 c0 -5 5 -10 10 -10 6 0 10 5 10 10 0 6 -4 10 -10 10 -5 0
-10 -4 -10 -10z"/>
<path d="M14017 346 c-4 -10 0 -12 14 -9 10 3 16 9 13 14 -8 13 -21 11 -27 -5z"/>
<path d="M15045 538 c-4 -10 -4 -26 0 -35 8 -17 8 -17 12 0 3 9 3 25 0 35 -4
16 -4 16 -12 0z"/>
<path d="M14827 524 c-9 -10 2 -24 19 -24 8 0 14 7 14 15 0 15 -21 21 -33 9z"/>
<path d="M15055 460 c3 -5 10 -10 16 -10 5 0 9 5 9 10 0 6 -7 10 -16 10 -8 0
-12 -4 -9 -10z"/>
<path d="M14867 363 c-16 -3 -26 -10 -24 -16 5 -15 80 -13 85 2 2 6 8 9 13 5
5 -3 9 0 9 5 0 11 -28 12 -83 4z"/>
<path d="M6821 477 c-6 -12 -11 -40 -9 -63 2 -32 7 -40 23 -42 11 0 21 -6 23
-12 2 -5 17 -10 33 -10 24 0 29 4 29 25 0 14 5 25 10 25 6 0 10 14 10 30 0 17
-4 30 -9 30 -5 0 -11 9 -14 20 -8 30 -79 28 -96 -3z"/>
<path d="M10160 540 c0 -5 10 -10 23 -10 18 0 19 2 7 10 -19 13 -30 13 -30 0z"/>
<path d="M10340 505 c0 -21 5 -25 30 -25 25 0 30 4 30 25 0 21 -5 25 -30 25
-25 0 -30 -4 -30 -25z"/>
<path d="M10340 364 c0 -3 6 -12 14 -20 16 -16 86 -19 86 -4 0 6 11 10 25 10
14 0 25 5 25 10 0 6 -32 10 -75 10 -41 0 -75 -3 -75 -6z"/>
<path d="M12924 491 c4 -6 0 -11 -8 -11 -9 0 -16 -9 -16 -20 0 -11 -7 -20 -15
-20 -8 0 -15 -4 -15 -9 0 -5 7 -16 15 -25 8 -8 15 -20 15 -26 0 -6 5 -8 10 -5
6 3 13 -1 16 -9 11 -29 40 -15 44 22 1 4 8 18 17 32 9 14 12 22 8 18 -4 -4
-15 7 -24 25 -9 17 -24 34 -35 35 -11 3 -16 0 -12 -7z"/>
</g>
</svg>
